<?xml version="1.0" standalone="no"?>
<!DOCTYPE svg PUBLIC "-//W3C//DTD SVG 1.1//EN" "http://www.w3.org/Graphics/SVG/1.1/DTD/svg11.dtd" >
<svg xmlns="http://www.w3.org/2000/svg" xmlns:xlink="http://www.w3.org/1999/xlink" version="1.1">
<metadata>
Created by FontForge 20161116 at Wed Apr 18 15:07:46 2012
 By Jimmy Wärting
Copyright (c) 2012 by Typographer Mediengestaltung. All rights reserved. 
</metadata>
<defs>
<font id="DSWallau" horiz-adv-x="553" >
  <font-face 
    font-family="DS Wallau"
    font-weight="400"
    font-stretch="normal"
    units-per-em="1000"
    panose-1="2 0 0 0 0 0 0 0 0 0"
    ascent="800"
    descent="-200"
    x-height="533"
    cap-height="719"
    bbox="-36 -225 1439 937"
    underline-thickness="50"
    underline-position="-100"
    unicode-range="U+0005-2122"
  />
<missing-glyph horiz-adv-x="383" 
 />
    <glyph glyph-name=".notdef" horiz-adv-x="383" 
 />
    <glyph glyph-name="fi" horiz-adv-x="533" 
d="M231 706h1q43 -15 107 -48l2 -9l-57 -88l-10 -2q-23 16 -71 42l-5 -103h101l-15 -88l-88 1q-4 -114 -4 -172q0 -57 9 -228l-8 -9q-19 1 -57 1q-1 0 -73 -9l-9 9q12 262 12 326v82h-52l-4 12q42 50 46 59q8 18 11 75q1 32 69 81q47 34 95 68zM369 659l7 4h129l4 -8
l-31 -78l-9 -5h-125l-6 8zM302 451l-1 1q28 26 83 76q1 2 4 5.5t4 5.5q45 -21 62 -39q24 -25 24 -67q0 -45 -3 -134.5t-3 -134.5q0 -67 60 -82v-18l-115 -76q-81 38 -81 112q0 43 2 129t2 129q0 31 -6 44q-7 16 -32 32v17z" />
    <glyph glyph-name="fl" horiz-adv-x="533" 
d="M235 705q19 0 106 -48l-1 42l5 9q21 -1 63 -1t63 1l4 -6q-6 -104 -6 -157v-152q0 -132 2 -214q1 -49 9 -65q13 -26 55 -30v-19q-63 -35 -116 -78q-44 26 -63 56q-19 31 -19 81q0 19 2 55.5t2 55.5v176h-146l-3 -111v-73q0 -54 9 -216l-8 -9q-7 0 -22.5 0.5t-22.5 0.5
q-42 0 -84 -9l-11 9q9 106 13 408h-52l-3 11q40 49 46 60q9 21 9 76q0 20 13 34q4 4 29 23q121 90 127 90zM341 499v151l-56 -88l-12 -4q-30 24 -71 43l-5 -104z" />
    <glyph glyph-name="Lslash" horiz-adv-x="446" 
d="M17 278q13 5 25 8.5t25 8.5q-2 124 -5 221.5t-9 171.5l5 6l154 22l6 -8q-3 -52 -5 -141.5t-3 -217.5l3 1l35 14t25 11l12 -8q-5 -16 -11 -40t-14 -57q-14 -5 -26.5 -8.5t-23.5 -7.5v-22q0 -13 1.5 -50t3.5 -100q48 5 79.5 8.5t47.5 5.5q35 5 66.5 12t57.5 17l8 -11
l-71 -114q-32 2 -64 3t-65 2q-13 0 -64.5 -1.5t-142.5 -3.5l-6 5q6 97 6 194q-13 -5 -28 -11.5t-32 -14.5l-8 6z" />
    <glyph glyph-name="lslash" horiz-adv-x="255" 
d="M16 274q13 5 25.5 8.5t24.5 8.5v285q0 12 -0.5 27.5t-1.5 35.5q-1 25 -1.5 40.5t-0.5 22.5l6 5h134l4 -7q-2 -60 -3.5 -96t-1.5 -48v-214q15 6 26.5 10.5t19.5 8.5l11 -7q-5 -14 -10 -36t-13 -51q-9 -3 -17.5 -6t-16.5 -5v-13q0 -8 -0.5 -25.5t-0.5 -26.5q0 -112 66 -107
v-19q-28 -17 -57 -36t-60 -40q-48 21 -68.5 52.5t-20.5 85.5q0 19 3 60q0 5 0.5 9t0.5 8q-12 -5 -26 -11t-30 -14l-8 6q3 15 7 37t9 52z" />
    <glyph glyph-name="Zcaron" 
d="M143 890h75l79 -72l79 72h75l-122 -171h-64zM18 553q16 43 25.5 81.5t14.5 73.5l8 5q69 -10 133 -14.5t126 -4.5q19 0 46.5 1.5t64.5 3.5t64.5 3.5t46.5 1.5q2 0 4 -2q5 -3 5 -7t-72 -95q-5 -8 -43 -61.5t-108 -153.5q-53 -75 -156 -228q31 0 117 3q37 1 66 1.5t51 0.5
q16 0 50 -1.5t87 -5.5q-27 -76 -45 -155l-8 -5q-56 8 -116.5 12.5t-126.5 4.5h-116q-44 0 -155 -12q-8 0 -8 8q0 6 59 77q23 28 50.5 64.5t59.5 82.5q43 63 69 100.5t36 51.5q19 28 47 69t66 96z" />
    <glyph glyph-name="zcaron" horiz-adv-x="383" 
d="M66 775h75l79 -72l79 72h75l-122 -171h-64zM146 396h-9.5t-12.5 1q-8 1 -14 1h-9q-37 1 -50 -39l-4 -4h-13l-4 4q20 113 24 169l7 5q37 -2 78 -3t88 -1q43 0 82 1t74 3l4 -11q-52 -70 -113 -168t-133 -226l63 -3h46q15 0 47 1.5t83 5.5l8 -11q-15 -26 -25.5 -44.5
t-17.5 -30.5q-22 -41 -34 -77l-6 -4l-12 2l-3 5q3 18 3 17q0 8 -4 9q-8 3 -97 3q-26 0 -65.5 -0.5t-93.5 -0.5l-3 6q55 75 114 191q25 50 50 99t50 100h-98z" />
    <glyph glyph-name="space" unicode=" " horiz-adv-x="383" 
 />
    <glyph glyph-name="exclam" unicode="!" horiz-adv-x="276" 
d="M260 691q-2 -128 -12 -318l-2 -70q-5 -48 -25 -61q-35 -19 -103 -62l-8 5q5 80 5 144q0 48 -4.5 144.5t-4.5 144.5q0 29 12 33q14 6 38 14q59 21 90 35zM173 193q34 -36 101 -111l-109 -100q-35 33 -101 100q34 40 109 111z" />
    <glyph glyph-name="quotedbl" unicode="&#x22;" horiz-adv-x="399" 
d="M348 630q0 -110 -47 -254h-23q-51 135 -51 227v5.5t1 8.5v85h120v-72zM158 630q0 -110 -47 -254h-24q-50 136 -50 227v5.5t1 8.5v85h120v-72z" />
    <glyph glyph-name="long s" horiz-adv-x="254" 
d="M66 564v-1q0 38 8.5 54.5t37.5 41.5q20 15 59 47q64 -14 119 -40l6 -8l-27 -97l-12 -8l-55 22v-569l-6 -6q-31 3 -62 3q-35 0 -63 -4l-8 8q0 22 2 97q2 61 2 98v195h-33l-5 13q33 40 37 65v89z" />
    <glyph glyph-name="percent" unicode="%" horiz-adv-x="787" 
d="M180 609q53 -16 90 -89q32 -65 32 -126q0 -9 -2 -31q-58 -119 -151 -156q-129 83 -129 224q0 52 58 105q31 29 102 73zM223 340q0 56 -31 108.5t-80 78.5q-12 -27 -12 -47q0 -51 32 -112q35 -67 80 -81q11 19 11 53zM540 603h58l4 -10q-161 -245 -364 -593h-55l-5 9
q62 95 244 393q42 65 118 201zM639 391v-1q53 -17 89 -87q31 -63 31 -124q0 -6 -0.5 -17t-0.5 -16q-41 -66 -63 -91q-33 -37 -88 -67q-130 89 -130 210q0 6 0.5 17t0.5 16q30 62 64.5 96t96.5 64zM680 112q0 60 -29 113q-30 55 -81 84q-13 -18 -13 -49q0 -51 32 -112
q36 -67 81 -78q10 14 10 42z" />
    <glyph glyph-name="ampersand" unicode="&#x26;" horiz-adv-x="659" 
d="M178 363q-130 56 -130 145q0 25 10 43q1 2 25 37q57 36 113 71q87 54 109 54q48 0 89 -34q42 -36 42 -83q0 -89 -113 -159q66 -44 100 -93q26 -37 60 -123q47 57 49 187q0 39 -6 84l9 7q74 -4 99 -3l8 -7q-10 -105 -37 -166q-31 -68 -106 -133q83 -105 122 -105
q16 0 26 9l7 -1l8 -14l-1 -5q-13 -8 -70 -48q-42 -29 -72 -41q-59 28 -126 115q-85 -50 -226 -116q-90 73 -99 82q-51 53 -51 113q0 68 51 115q27 25 110 69zM322 511v-1q0 42 -30 78q-32 37 -73 37q-13 0 -27 -3q-9 -19 -9 -40q0 -49 36 -84q25 -25 80 -50q23 27 23 63z
M206 348v-1q-46 -51 -46 -104q1 -63 47 -102q43 -36 108 -36q38 0 63 22q-87 184 -172 221z" />
    <glyph glyph-name="parenleft" unicode="(" horiz-adv-x="426" 
d="M421 731l2 -6q-89 -88 -127 -198q-33 -97 -33 -234q0 -160 29 -255q37 -118 136 -218l-2 -6h-59q-126 114 -187 204q-88 128 -88 257q0 201 193 381q30 24 86 75h50z" />
    <glyph glyph-name="parenright" unicode=")" horiz-adv-x="426" 
d="M6 730h58q133 -127 187 -205q89 -128 89 -257q0 -134 -86 -258q-62 -88 -192 -198h-52l-1 7q89 89 126 194q34 95 34 229q0 165 -29 260q-36 121 -137 221z" />
    <glyph glyph-name="asterisk" unicode="*" horiz-adv-x="319" 
d="M76 551l-48 82l6 8l94 -5l45 83h11l36 -85l88 2l4 -9l-53 -77l53 -78l-6 -8l-94 3l-43 -89h-12l-42 90l-91 -3l-5 11z" />
    <glyph glyph-name="plus" unicode="+" horiz-adv-x="490" 
d="M30 342h167v167h102v-167h167v-102h-167v-168h-102v168h-167v102z" />
    <glyph glyph-name="comma" unicode="," horiz-adv-x="192" 
d="M84 144l91 44l12 -7q-63 -164 -118 -277l-88 -49l-9 8q39 71 112 281z" />
    <glyph glyph-name="hyphen" unicode="-" horiz-adv-x="468" 
d="M93 324h-1q204 -12 256 -12q58 0 105 4l12 -16q-58 -74 -82 -114q-84 11 -207 11q-25 0 -150 -5l-8 14q26 39 75 118z" />
    <glyph glyph-name="period" unicode="." horiz-adv-x="192" 
d="M138 198q32 -37 100 -110q-69 -59 -111 -102q-70 74 -105 109q40 32 116 103z" />
    <glyph glyph-name="slash" unicode="/" horiz-adv-x="489" 
d="M370 535l113 4l10 -12q-222 -257 -377 -527l-112 -2l-6 13q29 38 86 114q118 156 150 200q82 114 136 210z" />
    <glyph glyph-name="zero" unicode="0" horiz-adv-x="489" 
d="M278 614q84 -32 140 -138q51 -97 51 -195q0 -8 -0.5 -24t-0.5 -24q-99 -188 -234 -249q-41 19 -95 76q-110 116 -110 260q0 8 0.5 22.5t0.5 22.5q70 165 248 249zM356 163v-1q0 94 -54 198q-61 117 -143 135q-17 -29 -17 -63q0 -94 55 -196q62 -115 145 -133q14 33 14 60
z" />
    <glyph glyph-name="one" unicode="1" horiz-adv-x="319" 
d="M3 471v-1q59 23 125 61q73 43 112 80l14 -7q-9 -123 -9 -408q0 -63 10 -189l-5 -8q-28 3 -56 3q-30 0 -90 -2l-5 7q8 67 8 126v251q0 18 -2 48q-1 37 -2 48l-96 -27l-2 1l-5 14z" />
    <glyph glyph-name="two" unicode="2" horiz-adv-x="489" 
d="M227 215q-182 29 -182 177q0 45 13 78q40 38 104 75q11 7 112 62h19q65 0 112 -32q53 -36 53 -98q0 -30 -4 -53q-32 -39 -206 -233q-19 -19 -53 -59q69 -3 137 -3q64 0 129 3l6 -10q-24 -29 -65 -91l-32 -59l-4 -3h-12l-2 3q0 5 2 15l1 1q0 3 -5 5q-11 6 -301 6l-3 8
q125 129 181 208zM337 367q0 57 -40 103q-41 47 -97 47q-11 0 -20 -3q-10 -42 -10 -51q0 -57 38 -94.5t95 -38.5q8 0 27 2q7 26 7 35z" />
    <glyph glyph-name="three" unicode="3" horiz-adv-x="490" 
d="M121 156l15 -5q10 -44 54 -68q39 -21 88 -21q13 34 13 60q1 66 -50 106q-46 35 -115 37l-2 22q125 49 125 128q0 32 -29 55q-27 22 -60 22q-41 0 -100 -45l-14 17q62 48 182 147q58 -8 103 -38q55 -37 55 -88q0 -31 -38 -76q-30 -36 -64 -60q140 -27 140 -140
q0 -14 -4 -36q-9 -48 -31 -72q-14 -15 -64 -46q-107 -67 -162 -67q-61 0 -129 70z" />
    <glyph glyph-name="four" unicode="4" horiz-adv-x="489" 
d="M244 589l1 1q42 7 107 31l12 -8q-10 -190 -10 -229q0 -19 0.5 -57t0.5 -57h98l10 -12l-30 -105l-78 2v-151l-8 -5q-19 1 -58 1q-42 0 -63 -1l-5 5l4 152l-198 2q2 63 38 132q0 1 72 118q38 59 107 181zM227 274l6 217q-49 -70 -139 -216z" />
    <glyph glyph-name="five" unicode="5" horiz-adv-x="489" 
d="M275 97q25 0 42 14q19 14 19 39q0 54 -57 95q-54 39 -110 38t-90 -32l-15 11q52 109 67 338q69 -10 146 -10q100 0 176 13l5 -8q-43 -75 -67 -128q-92 9 -154 9l-87 -3l-13 -74q63 21 106 21q70 0 125 -45q59 -48 59 -116q0 -90 -85 -168q-66 -62 -167 -102
q-150 84 -150 104t94 96q75 -92 156 -92z" />
    <glyph glyph-name="six" unicode="6" horiz-adv-x="489" 
d="M366 612l3 -16q-50 -40 -155 -145q119 -2 186 -59q74 -62 74 -179q0 -8 -2 -20q-55 -99 -203 -209q-96 11 -164 62q-80 59 -80 148q0 48 111 209q74 107 149 214zM362 136v-1q0 84 -70 149q-69 63 -153 61l-7 -1q-1 -6 -1 -18q0 -87 71 -156q69 -66 157 -70q3 18 3 36z
" />
    <glyph glyph-name="seven" unicode="7" horiz-adv-x="489" 
d="M115 638l6 4l15 -1l3 -5q-4 -24 -4 -19l4 -6q34 -15 227 -15q64 0 96 1l8 -12q-102 -193 -225 -593l-95 -12l-10 12q74 142 150 281q24 44 48 87q26 52 36 93q-123 11 -201 11q-77 0 -132 -5z" />
    <glyph glyph-name="eight" unicode="8" horiz-adv-x="490" 
d="M134 279h-1q-77 57 -77 137q0 15 6 45q75 75 182 149q8 1 24 1q80 0 124 -48q43 -47 43 -127q0 -7 -4 -21q-36 -34 -96 -69q56 -31 80 -61q30 -38 30 -95q0 -49 -10 -67q-8 -8 -19 -18q-66 -63 -138 -113q-6 0 -18 -0.5t-18 -0.5q-74 0 -130 44q-61 48 -61 119q0 8 2 24z
M323 396v-1q0 46 -39 84.5t-85 38.5q-17 0 -29 -5l-3 -33q0 -49 47 -90q46 -38 96 -39q13 19 13 45zM150 237q0 -68 63 -109q56 -36 127 -36h15v9q0 30 -22 67q-27 46 -72 69q-29 15 -96 31l-15 -18v-13z" />
    <glyph glyph-name="nine" unicode="9" horiz-adv-x="489" 
d="M235 609v1q92 -15 159 -64q83 -58 83 -141q0 -48 -78 -160q-58 -76 -115 -152q-24 -36 -76 -106l-75 6l-3 14q19 14 81 70q66 58 74 70q-11 -1 -33 -1q-96 0 -158.5 65t-62.5 162q0 -2 3 46q82 96 201 190zM134 474q0 -91 69 -158.5t160 -67.5h5q1 11 1 33
q0 74 -66.5 141t-141.5 67q-9 0 -27 -2v-13z" />
    <glyph glyph-name="colon" unicode=":" horiz-adv-x="276" 
d="M176 530q40 -49 100 -109q-38 -34 -111 -106q-18 19 -53 56.5t-53 56.5zM177 192q32 -37 98 -109q-18 -18 -56 -52t-56 -52l-104 111z" />
    <glyph glyph-name="semicolon" unicode=";" horiz-adv-x="235" 
d="M47 321l122 72l10 -1l71 -110l-2 -7q-27 -25 -118 -81l-6 3q-26 38 -79 116zM216 189l13 -8q-42 -109 -117 -275q-78 -48 -88 -48q-1 0 -3.5 2.5t-2.5 7.5q0 6 49 111q18 40 59 166z" />
    <glyph glyph-name="less" unicode="&#x3c;" horiz-adv-x="894" 
d="M261 541q72 -18 130 -46q2 48 2 73q0 45 -4 135l4 5h111h23l5 -5q-9 -110 -9 -183q0 -15 0.5 -45t0.5 -45q65 43 147 114q94 -37 129 -85q36 -49 36 -149q0 -37 -12.5 -110t-12.5 -110q0 -24 22 -24q16 3 15 3l3 -3l4 -18l-3 -6q-80 -15 -193 -54l-9 8q51 169 51 269
q0 65 -18 110q-26 62 -81 62q-47 0 -77 -37q0 -25 -0.5 -74t-0.5 -73l6 -252l-7 -7q-46 4 -70 4q-33 0 -57 -5l-7 8q4 208 4 312v137l-85 -107h-6l-12 9v4q3 7 12 20l2 7l-1 4q-19 18 -62 33q-42 14 -70 13l-4 -1q-12 -29 -12 -88q0 -143 118 -210q46 -26 67 -26q14 0 31 7
l4 -1l7 -8v-6q-35 -29 -115 -109q-119 30 -175 95q-60 70 -60 190q0 44 12 97q142 116 217 168z" />
    <glyph glyph-name="equal" unicode="=" horiz-adv-x="489" 
d="M-2 251h499v-103h-499v103zM-2 440h499v-104h-499v104z" />
    <glyph glyph-name="greater" unicode="&#x3e;" horiz-adv-x="872" 
d="M241 552h1l144 -48l-9 199l4 5q55 -5 66 -5q13 0 81 5l4 -6q-6 -110 -6 -166q0 -14 0.5 -41t0.5 -40l123 94h14q41 -25 79 -57q56 -46 56 -71q0 -5 -45 -45q-49 -44 -53 -50q61 -54 92 -122q24 -52 46 -148l-123 -68l-10 6q-23 187 -101 232q-12 6 -34 19l-1 10
q20 12 80 70q9 9 27 24q-13 30 -42 59q-34 33 -62 33q-33 0 -46 -26v-185q0 -39 5 -231l-7 -6q-41 7 -87 7q-32 0 -48 -1l-7 7q8 156 8 233q0 2 -3 239q-34 -40 -96 -124l-6 -1l-13 10l-1 5q15 15 15 26q0 15 -54 31q-38 12 -68 17q-13 -55 -13 -104q0 -59 29 -111.5
t78 -85.5q47 -32 77 -32q12 0 27 5l4 -1l8 -12l-1 -5l-109 -105q-236 53 -237 282q0 51 12 100q58 61 201 179z" />
    <glyph glyph-name="question" unicode="?" horiz-adv-x="297" 
d="M109 717q112 -25 132 -34q67 -32 67 -106q0 -42 -34 -86q-11 -13 -64 -67q-34 -34 -34 -52q0 -22 25 -53q21 -25 45 -40l-110 -91q-64 81 -64 132q0 24 26 54q24 27 48 55q27 37 27 78q0 48 -36 76q-33 26 -84 26q-8 0 -24 -2l-9 10zM173 190q14 -18 50 -48t51 -49
q-19 -26 -113 -106q-9 10 -70 69q-12 11 -31 34q37 34 113 100z" />
    <glyph glyph-name="at" unicode="@" horiz-adv-x="1015" 
d="M529 500q-64 0 -110 -67q-41 -61 -41 -128q0 -40 21 -68q23 -29 63 -29q61 0 107 71q42 65 42 129q0 35 -23 63q-25 29 -59 29zM662 556h69q-25 -81 -73 -246q-18 -66 -18 -80q0 -29 21 -29q60 0 104 81q38 69 38 135q0 116 -82 188q-79 70 -197 70q-132 0 -219 -95
q-85 -92 -85 -225q0 -131 89.5 -221.5t222.5 -90.5q70 0 134.5 30.5t107.5 83.5h67q-49 -82 -132.5 -129t-179.5 -47q-160 0 -271 110.5t-111 269.5q0 155 111 265.5t266 110.5q139 0 239 -86q105 -89 105 -226q0 -101 -68 -192q-73 -97 -171 -97q-27 0 -45 17.5t-19 45.5
l-2 -1q-56 -62 -120 -62t-107 49q-40 46 -40 111q0 105 62 187q67 89 169 89q79 0 115 -78z" />
    <glyph glyph-name="A" unicode="A" horiz-adv-x="744" 
d="M275 646h-1q-38 0 -104 -4q-75 -5 -103 -6l-10 13l72 66q109 -7 177 -7l160 1q76 0 207 10l11 -11l-52 -64q-41 1 -124 4q89 -252 234 -634l-5 -6l-146 -16q-35 116 -121 344h-218l-134 -333l-110 -13l-8 9zM441 408l-75 199l-85 -198z" />
    <glyph glyph-name="B" unicode="B" 
d="M66 103v402q0 29 -2 75q-2 58 -2 75q51 20 103 41q73 28 99 28q100 0 164 -28q88 -39 88 -126q0 -106 -119 -158q65 -32 97 -69q38 -46 38 -111q0 -119 -155 -200q-19 -10 -56 -25q-25 -10 -26 -10l-234 4q5 85 5 102zM212 107h1q71 -13 115 -13q34 0 76 16q11 29 11 50
q0 69 -49 121q-46 49 -115 66q-4 3 -6 8l2 9q12 7 33 19q89 48 89 143q0 47 -43.5 89t-90.5 42q-12 0 -24 -3q0 -15 -0.5 -45t-0.5 -45v-364q0 -31 2 -93z" />
    <glyph glyph-name="C" unicode="C" 
d="M285 713h41q72 0 125 -19q50 -17 110 -62q-37 -36 -106 -113q-78 72 -217 72h-19q-33 -112 -33 -218q0 -134 70 -195q66 -58 203 -58q22 0 102 7l8 -14l-107 -123q-162 5 -240 31q-95 31 -136 109q-43 81 -43 240q0 67 9 136q78 69 233 207z" />
    <glyph glyph-name="D" unicode="D" horiz-adv-x="680" 
d="M67 153v300l-6 174q66 34 88 45q49 27 84 51q162 -9 279 -92q136 -95 136 -247q0 -149 -117 -252q-81 -70 -252 -139l-218 7zM321 74q92 0 142 65q47 60 47 154q0 121 -88 204q-76 71 -203 101q-1 -18 -6 -138q-4 -84 -4 -138v-124q0 -17 5 -105q60 -19 107 -19z" />
    <glyph glyph-name="E" unicode="E" horiz-adv-x="446" 
d="M156 709q84 -3 170 -3q37 0 111 2l7 -9l-61 -95q-73 14 -158 14h-19v-210h54q63 0 162 11l7 -10l-54 -88q-9 0 -57 4q-35 3 -58 3q-9 0 -27 -0.5t-27 -0.5l-1 -239q5 0 16 -0.5t16 -0.5q85 0 199 19l6 -10q-37 -60 -52 -97l-141 3q-76 0 -183 -7l-7 5q9 81 9 135v177
q0 172 -18 343q34 12 106 54z" />
    <glyph glyph-name="F" unicode="F" horiz-adv-x="447" 
d="M164 708q83 -6 167 -6q26 0 117 7l8 -9l-65 -99q-69 10 -180 14v-200h47q72 0 144 6l7 -8l-40 -84q-52 2 -156 5q-1 -44 -1 -133q0 -97 6 -195l-6 -7q-86 3 -147 1l-7 6q10 134 10 284v127q0 87 -15 232q67 30 111 59z" />
    <glyph glyph-name="G" unicode="G" horiz-adv-x="766" 
d="M674 597q-100 -30 -149 -47q-81 90 -164 90q-95 0 -142 -77q-39 -63 -39 -164q0 -122 78 -224q85 -110 204 -110q55 0 75 31q15 25 15 82q0 127 -2 191l-226 -4l-6 11q33 37 66 65q110 -13 231 -13q28 0 84 2l7 -8q-5 -72 -5 -174q0 -33 7 -140q-183 -75 -302 -117
q-154 8 -258 90q-116 90 -116 238q0 168 138 284q131 109 301 109q53 0 111 -35q48 -33 97 -66z" />
    <glyph glyph-name="H" unicode="H" horiz-adv-x="680" 
d="M58 699l154 17l6 -6q-8 -134 -7 -204l1 -80l132 -3q21 0 126 5v83q0 73 -9 179l5 7l148 20l8 -8q-8 -168 -8 -189v-296q0 -106 6 -213l-6 -7h-16q-55 0 -137 -11l-5 5q8 72 10 177q2 89 4 177q-60 4 -89 4q-46 0 -171 -11v-175q0 -80 9 -159l-6 -8h-18q-51 0 -127 -9
l-7 5l6 252v155q0 109 -13 285z" />
    <glyph glyph-name="I" unicode="I" horiz-adv-x="276" 
d="M70 518q0 117 -7 175l6 7l153 19l6 -8q-11 -152 -11 -249v-208q0 -27 8 -243l-6 -6l-151 -7l-7 6q9 96 9 161v353z" />
    <glyph glyph-name="J" unicode="J" horiz-adv-x="426" 
d="M92 205v1q30 -54 50 -77q30 -34 75 -52q9 105 9 174v275q0 19 -8 174l5 5l153 12l6 -6q-13 -151 -13 -315q0 -116 6 -231q-33 -53 -113 -112q-87 -62 -142 -63q-22 0 -67 24q-48 25 -48 45q0 19 75 146h12z" />
    <glyph glyph-name="K" unicode="K" horiz-adv-x="595" 
d="M62 701l148 15l7 -8q-10 -186 -10 -279v-78q0 -3 1 -17v-17q183 194 293 404l122 -20l4 -10q-189 -178 -299 -319q71 -73 217 -215q24 -20 69 -63v-10l-127 -98q-173 213 -280 299q0 -7 -0.5 -19.5t-0.5 -18.5q0 -93 11 -240l-8 -8h-144l-8 7q7 105 7 225v256
q0 39 -3 103q-4 81 -5 104z" />
    <glyph glyph-name="L" unicode="L" horiz-adv-x="446" 
d="M58 694l154 22l6 -8q-8 -126 -8 -476q0 -25 5 -150q95 9 127 14q71 10 124 29l8 -11l-71 -114q-63 4 -129 5q-26 0 -207 -5l-6 5q6 98 6 195q0 314 -14 488z" />
    <glyph glyph-name="M" unicode="M" horiz-adv-x="851" 
d="M104 592h-1q-33 79 -67 97l3 19q49 -3 85 -4q21 0 96 2q58 -154 196 -454q82 143 211 454h118l9 -12q-2 -16 -2 -49q0 -70 13 -223q18 -215 37 -414l-6 -10h-18l-135 -3l-7 8q1 31 1 93q0 265 -21 395q-152 -304 -224 -494l-23 1q-36 94 -102 236q-94 205 -107 234
q-13 -90 -26 -179q-14 -103 -14 -180q0 -51 6 -101l-7 -7h-112l-7 6q32 105 61 285q13 75 25 149q14 87 18 151z" />
    <glyph glyph-name="N" unicode="N" horiz-adv-x="766" 
d="M65 683l96 27l7 -2q65 -100 198 -270q76 -98 92 -117q53 -65 97 -112l-2 248q-2 143 -10 246l5 6q110 -2 141 -1l5 -7q-6 -184 -5 -378q1 -208 4 -318l-4 -4l-106 -13l-8 5q-86 182 -368 494q-2 -138 -2 -207v-92q0 -116 10 -184l-6 -6l-142 -9l-6 7l6 324v236l-6 120z
" />
    <glyph glyph-name="O" unicode="O" horiz-adv-x="787" 
d="M392 716q152 0 257 -110q104 -109 104 -262q0 -49 -6 -67q-3 -9 -40 -61q-56 -79 -117 -139q-89 -90 -146 -90q-170 0 -289 102q-125 107 -125 275q0 55 11 101q8 12 25 35q102 121 249 199q1 1 16 7.5t16 7.5q10 2 45 2zM515 106q65 0 91 40q20 33 20 102q0 150 -84 253
q-91 110 -238 110q-75 0 -115 -49q-36 -44 -36 -122q0 -150 108 -244q102 -90 254 -90z" />
    <glyph glyph-name="P" unicode="P" horiz-adv-x="511" 
d="M15 20h-1q35 8 45 24q11 18 11 433v98q0 54 -5 93l7 10q143 30 189 30q98 0 168 -62q73 -64 73 -161q0 -74 -41 -132q-28 -41 -100 -97q-72 13 -117 13q-22 0 -33 -2q-3 -56 -3 -111q0 -54 2 -67q4 -29 24 -39q13 -7 47 -7q11 0 45 2l8 -11l-16 -38q-118 8 -177 8
q-42 0 -126 -4v20zM349 511v-1q0 55 -30 100q-34 50 -86 50h-12q-4 -52 -10 -155q-3 -97 -4 -210q63 28 102.5 88t39.5 128z" />
    <glyph glyph-name="Q" unicode="Q" horiz-adv-x="787" 
d="M394 717q152 0 257 -113q102 -110 102 -264q0 -38 -6 -63q-52 -87 -108 -147q61 -44 135 -112v-10q-54 -42 -101 -99h-11q-23 26 -135 116l-59 -36q-11 -1 -33 -1q-158 0 -277 99q-128 105 -128 260q0 -9 -1 42q-1 67 28 102q104 126 252 206q31 17 35 18q8 2 50 2z
M519 106q107 0 107 138q0 155 -85 257q-90 110 -242 110q-74 0 -113 -53q-34 -46 -34 -123q0 -147 112 -241q105 -88 255 -88z" />
    <glyph glyph-name="R" unicode="R" 
d="M57 685q49 10 99 20q58 10 100 10q102 0 172 -42q85 -50 85 -146q0 -67 -46 -116q-28 -30 -103 -78q49 -96 212 -289l-5 -11q-78 -21 -143 -49q-81 133 -156 216q-20 19 -54 61v16q65 42 95 82q38 51 38 118q0 65 -35 114q-37 54 -99 63q-8 -118 -8 -177v-289
q0 -112 6 -186l-6 -6q-53 5 -96 5q-19 0 -53 -2l-4 4q11 194 11 264q0 249 -13 411z" />
    <glyph glyph-name="S" unicode="S" horiz-adv-x="489" 
d="M19 132l96 77l13 -2q42 -61 76 -87q46 -36 107 -36q11 0 19 24q6 20 6 34q0 80 -77 126q-71 38 -142 77q-77 57 -77 165q0 40 16 82q50 35 118 73q89 49 121 49q31 0 92 -44q52 -36 81 -69l-3 -13l-96 -71l-13 1q-28 42 -66 71q-46 36 -88 36q-14 0 -22 -23
q-6 -18 -6 -35q0 -84 75 -132q70 -38 140 -75q75 -50 75 -139q0 -44 -18 -72q-9 -13 -51 -54q-87 -84 -111 -96q-21 -10 -51 -10q-110 0 -217 128z" />
    <glyph glyph-name="T" unicode="T" horiz-adv-x="533" 
d="M36 708h-1q80 -5 192 -5q169 0 303 12l8 -7l-46 -107l-13 -7q-49 24 -113 24q-17 0 -34 -3q-2 -122 -2 -183v-204q0 -86 11 -222l-9 -7q-56 4 -84 4q-13 0 -33 -2q-26 -1 -33 -2l-6 8q5 56 5 135v238q0 134 -9 234q-114 -3 -165 -31l-10 5z" />
    <glyph glyph-name="U" unicode="U" horiz-adv-x="638" 
d="M59 698l148 10l7 -6q5 -31 5 -75q0 -58 -5 -172.5t-5 -171.5q0 -176 193 -176q11 0 21 3q5 170 5 204q0 183 -14 377l4 7l147 14l7 -4q-6 -170 -7 -433q0 -65 2 -270l-5 -4q-80 -5 -144 -13l-4 6l6 71q-69 -34 -129 -79q-73 10 -147 61q-86 58 -86 125q0 44 4.5 133.5
t4.5 134.5q0 120 -11 252z" />
    <glyph glyph-name="V" unicode="V" horiz-adv-x="680" 
d="M1 676h-1q21 3 159 40q86 -198 149 -338q24 -54 47 -109q28 -64 53 -106q74 263 75 266q41 152 60 269l123 16l9 -9q-162 -372 -231 -592q-13 -48 -38 -112q-1 -1 -3 -1q-3 0 -9 0.5t-9 1.5q-11 0 -34 -2.5t-34 -2.5l-4 1q-2 1 -6.5 3t-63.5 155q-9 22 -88 193
q-89 191 -158 316z" />
    <glyph glyph-name="W" unicode="W" horiz-adv-x="1085" 
d="M-5 666q78 24 163 54q42 -118 111 -273l122 -268l116 196q-112 200 -193 306l2 10q58 6 175 24q31 -65 99 -190q58 100 88 182q15 -1 45 -1t90 2l4 -12q-60 -77 -178 -258l149 -254q113 252 144 509q94 8 141 15l8 -12q-60 -123 -139 -312q-40 -95 -80 -191
q-45 -110 -68 -195h-9l-72 -3q-27 60 -79 153q-65 118 -82 152q-123 -188 -177 -303h-36q-28 0 -42 -1q-46 143 -140 335l-164 324z" />
    <glyph glyph-name="X" unicode="X" horiz-adv-x="617" 
d="M235 314q-107 159 -111 165q-65 93 -122 157l2 7q81 34 144 76q40 -77 180 -282q116 147 173 256l123 14l5 -9q-31 -29 -100 -116q-52 -69 -158 -208q40 -52 115 -163q74 -108 115 -162l-4 -12q-90 -21 -157 -58q-44 85 -162 272q-109 -137 -164 -251q-84 -2 -126 -9
l-3 12q104 106 250 311z" />
    <glyph glyph-name="Y" unicode="Y" horiz-adv-x="638" 
d="M-3 658q67 20 159 57q94 -149 217 -278q114 140 190 279l70 -32l3 -11q-156 -202 -227 -309l3 -357l-8 -6h-145l-6 6q9 123 9 245q0 24 -2 72q-104 145 -264 324z" />
    <glyph glyph-name="Z" unicode="Z" 
d="M18 553q31 86 40 155l8 5q136 -19 259 -19q37 0 111 5t111 5q2 0 4 -2q5 -3 5 -7t-72 -95q-11 -15 -151 -215q-53 -75 -156 -228q31 0 117 3q74 2 117 2q32 0 137 -7q-27 -76 -45 -156l-8 -5q-111 18 -243 18h-116q-43 0 -156 -13q-8 2 -8 9q0 6 60 77q46 55 110 147
q85 124 105 152q37 56 113 165z" />
    <glyph glyph-name="bracketleft" unicode="[" horiz-adv-x="298" 
d="M218 715l-5 -4q-46 -3 -69 -4q-11 -7 -11 -23q0 -114 -2 -341.5t-2 -342.5q0 -12 -0.5 -37t-0.5 -37q0 -75 8 -89q10 -7 36 -10q20 0 40 -1l5 -3v-18l-4 -4q-38 2 -57 2q-23 0 -69 -2.5t-69 -2.5q-18 0 -18 20l2 648q0 23 0.5 67t0.5 66q0 71 -5 124q3 13 22 13
q169 0 195 2l3 -6v-17z" />
    <glyph glyph-name="backslash" unicode="\" horiz-adv-x="254" 
d="M66 564v-1q0 38 8.5 54.5t37.5 41.5q20 15 59 47q64 -14 119 -40l6 -8l-27 -97l-12 -8l-55 22v-569l-6 -6q-31 3 -62 3q-35 0 -63 -4l-8 8q0 22 2 97q2 61 2 98v195h-33l-5 13q33 40 37 65v89z" />
    <glyph glyph-name="bracketright" unicode="]" horiz-adv-x="298" 
d="M-2 732l3 6q26 -2 195 -2q19 0 22 -13q-5 -53 -5 -124q0 -22 0.5 -66t0.5 -67l2 -648q0 -20 -18 -20q-23 0 -69 2.5t-69 2.5q-19 0 -57 -2l-4 4v18l5 3q20 1 39 1q26 3 37 10q8 14 8 89q0 12 -0.5 37t-0.5 37q0 115 -2 342.5t-2 341.5q0 16 -11 23q-23 1 -69 4l-5 4v17z
" />
    <glyph glyph-name="underscore" unicode="_" horiz-adv-x="556" 
d="M0 -125v50h556v-50h-556z" />
    <glyph glyph-name="a" unicode="a" horiz-adv-x="447" 
d="M5 121h1q18 21 86 86q54 52 81 89q-13 -3 -27 -3q-39 0 -66 19q-32 21 -32 58q0 44 57.5 109t99.5 65q65 0 114 -24q64 -31 64 -88v-22q0 -98 1 -213q1 -84 50 -106v-13l-100 -89q-74 27 -78 109q-66 -46 -133 -107h-11q-40 49 -107 120v10zM152 315q33 0 64 14
q39 17 39 44q0 31 -44 48q-33 13 -71 13q-28 0 -47 -14q-21 -15 -21 -42q0 -63 80 -63zM259 336q-68 -62 -143 -137q2 -8 40 -48q47 -47 49 -50l14 -7q14 4 27.5 19.5t13.5 30.5v26z" />
    <glyph glyph-name="b" unicode="b" 
d="M62 711q25 -3 126 -3h14l6 -6q-11 -117 -14 -266q40 34 119 104h15q41 0 93 -34q103 -67 103 -237q0 -63 -25 -137q-198 -144 -219 -144q-19 0 -43 8q-96 32 -137 83q-45 55 -45 154q0 52 2 235q1 146 0 236zM372 90q43 0 43 100q0 93 -40 156q-47 74 -135 74
q-57 0 -57 -68q0 -41 4 -109q3 -60 65 -108q59 -45 120 -45z" />
    <glyph glyph-name="c" unicode="c" horiz-adv-x="383" 
d="M263 542q43 -19 132 -45q13 4 26 17h6l9 -10l2 -4q-77 -88 -130 -157h-5l-11 8l-1 7l13 18q2 4 2 7q0 17 -60 36q-48 15 -78 17q-12 -50 -12 -90q-1 -141 121 -214q40 -24 67 -24q6 0 27 7l5 -1l7 -8v-6l-115 -109q-120 32 -175 96q-60 70 -60 190q0 42 12 95
q44 49 218 170z" />
    <glyph glyph-name="d" unicode="d" 
d="M39 636l132 83q51 -57 156 -115q103 -57 137 -97q59 -70 59 -197q0 -57 -16 -116q-89 -103 -227 -205q-1 0 -3.5 -0.5t-3.5 -0.5q-9 0 -57 24q-179 90 -179 284q0 49 25 157l123 69q-105 52 -148 105zM396 241h-1q0 110 -44 171q-42 58 -146 101q-37 -87 -37 -164
q0 -99 52 -161q40 -47 140 -99q36 60 36 152z" />
    <glyph glyph-name="e" unicode="e" horiz-adv-x="383" 
d="M280 548l124 -198l-4 -8l-221 -115v-3q0 -53 32 -88q33 -37 86 -37q9 0 33 7t30 7l11 -15l-1 -7q-37 -31 -73 -62q-54 -44 -78 -44q-30 0 -88 36q-67 41 -74 107q-8 71 -8 188q0 22 0.5 66t0.5 66q136 63 230 100zM277 326l-1 -1q-5 24 -93 153q-5 -125 -5 -150v-67
q27 15 54 31q40 23 45 34z" />
    <glyph glyph-name="f" unicode="f" horiz-adv-x="276" 
d="M231 707q61 -19 109 -49l1 -9l-55 -86l-13 -3q-46 30 -70 43l-5 -105l95 2l6 -6v-76l-7 -6l-96 -1q-4 -106 -4 -159q0 -80 10 -240l-9 -9q-72 0 -129 -8l-10 8q12 184 12 371v38h-51l-4 13q28 32 36 43q19 27 20 50q3 58 5 64q5 9 49 44q37 26 110 81z" />
    <glyph glyph-name="g" unicode="g" horiz-adv-x="533" 
d="M347 528q87 0 139 9l8 -5q-2 -33 -52 -60q59 -70 59 -192l-88 -97q87 -16 87 -95q0 -40 -22 -93q-32 -77 -74 -111q-49 -40 -126 -40t-194 41l-2 10q21 33 62 98l10 2q102 -63 174 -63q32 0 60 22q30 24 30 54q0 41 -69 63q-49 15 -103 16q-57 0 -127 -40l-6 4
q-2 8 -2 13q0 33 42 63q-71 14 -101 84q-20 48 -25 137q77 100 147 166q18 17 80 17q16 0 47 -1.5t46 -1.5zM393 269q0 70 -50 116q-49 44 -119 44q-40 0 -75 -7q-8 -35 -8 -65q0 -88 76 -128q46 -24 154 -40q22 46 22 80z" />
    <glyph glyph-name="h" unicode="h" horiz-adv-x="574" 
d="M70 547q0 26 -5 156l6 5q33 -1 66 -1t66 1l6 -5q-9 -104 -9 -175q0 -17 0.5 -49.5t0.5 -48.5q25 17 146 113q81 -14 126 -81q40 -60 40 -147q0 -39 -12.5 -115.5t-12.5 -115.5q0 -5 6 -11.5t10 -6.5q14 0 21 2l5 -3l3 -17l-5 -3l-192 -57l-10 8q19 55 34 130
q17 82 17 132q0 179 -99 179q-38 0 -77 -37v-220q0 -87 6 -172l-7 -5q-7 0 -32 2q-20 2 -32 2q-15 0 -66 -7l-5 6q5 212 5 255v286z" />
    <glyph glyph-name="i" unicode="i" horiz-adv-x="254" 
d="M87 659l7 4h139l5 -6l-30 -80l-8 -5h-139l-3 9zM33 452q30 32 94 94q44 -19 61 -39q21 -25 21 -70q0 -44 -3.5 -132t-3.5 -132q0 -73 60 -91v-18l-114 -76q-57 22 -74 66q-11 28 -11 101q0 37 2.5 111.5t2.5 112.5q0 35 -35 56v17z" />
    <glyph glyph-name="j" unicode="j" horiz-adv-x="254" 
d="M73 661l7 6h145l4 -6l-28 -84l-7 -4h-145l-4 7zM68 318v-1q0 77 -28 103l-21 15v13q64 54 98 92q86 -37 86 -80q0 -68 -1 -204t-1 -204q0 -80 -15 -108q-10 -18 -76 -78q-30 -28 -92 -81l-11 14q41 53 49 82q6 19 8 95q4 117 4 342z" />
    <glyph glyph-name="k" unicode="k" horiz-adv-x="533" 
d="M60 707h1q12 0 36 -2.5t35 -2.5q24 0 72 6l6 -6q-8 -89 -8 -201v-47q41 31 124 93h15q40 -25 79 -57q56 -46 56 -71q0 -9 -101 -95q62 -60 92 -123q22 -47 47 -147l-123 -67l-11 6q-12 95 -34 143q-30 64 -98 107l-1 11q67 51 105 94q-15 31 -42 59q-34 33 -62 33
q-32 0 -46 -26l3 -408l-6 -6q-50 4 -74 4q-11 0 -63 -5l-4 5q7 142 7 184v149q0 212 -10 363z" />
    <glyph glyph-name="l" unicode="l" horiz-adv-x="255" 
d="M68 707h134l4 -7q-5 -120 -5 -144v-313q0 -8 -0.5 -25.5t-0.5 -26.5q0 -112 66 -107v-19q-56 -33 -117 -77q-48 22 -68.5 54t-20.5 85q0 20 3 60t3 60v329q0 24 -2 63q-2 49 -2 63z" />
    <glyph glyph-name="m" unicode="m" horiz-adv-x="809" 
d="M103 546q39 0 67 -23.5t31 -61.5q88 64 101 85h17q121 0 145 -91q35 29 100 92q171 -2 171 -127q0 -27 -0.5 -81t-0.5 -81q0 -57 1 -81q2 -48 32 -48q5 0 20 6l7 -2l8 -16l-2 -6q-124 -68 -190 -119l-9 6q8 86 8 259q0 184 -74 184q-24 0 -68 -26l-3 -231q0 -51 15 -177
l-5 -6q-32 3 -62 3q-26 0 -78 -4l-6 7q12 123 12 278q0 157 -71 157q-43 0 -71 -30q-5 -112 -5 -201q0 -116 13 -203l-6 -6q-21 1 -64 1q-40 0 -72 -4l-6 8q7 97 7 249q0 9 0.5 27t0.5 28q0 114 -62 109l-4 16q62 57 103 110z" />
    <glyph glyph-name="n" unicode="n" 
d="M101 548q56 -13 74 -31q19 -21 23 -77q72 49 138 108q95 -13 124.5 -46.5t29.5 -129.5q0 -33 -1.5 -99t-1.5 -99q0 -60 31 -60q6 0 27 7l6 -2l6 -14l-3 -4q-91 -48 -183 -110l-12 8q6 178 6 267q0 162 -82 162q-40 0 -86 -32q0 -17 -0.5 -51t-0.5 -51v-109
q0 -102 10 -173l-8 -7q-7 0 -20.5 0.5t-20.5 0.5q-36 0 -87 -7l-9 7q6 69 6 139q0 43 -5 162q-2 50 -9 71q-13 42 -49 43l-4 19q70 70 101 108z" />
    <glyph glyph-name="o" unicode="o" horiz-adv-x="574" 
d="M277 542v1q68 -2 134 -43q64 -39 102 -99q30 -47 30 -145q0 -55 -30 -126q-76 -58 -229 -142q-121 18 -186 89q-67 72 -67 193q0 77 27 121q2 5 9 15q12 8 23 17q73 50 187 119zM378 86q25 0 37 42q9 30 9 63q0 176 -137 235q-41 18 -73 18q-57 0 -58 -119
q-1 -99 60 -167q64 -72 162 -72z" />
    <glyph glyph-name="p" unicode="p" horiz-adv-x="574" 
d="M13 432h-1q47 25 94 49q57 32 83 64l17 -7l-2 -105q52 27 145 111q81 -31 136.5 -112t55.5 -168q0 -31 -6 -55q-8 -34 -100 -126q-94 -93 -124 -93q-35 0 -107 36l-3 -189l-7 -7q-28 3 -57 3q-32 0 -63 -3l-7 6q0 26 2 114q2 70 2 113q0 127 -1 213q0 8 0.5 23t0.5 22
q0 95 -31 95q-7 0 -15 -8l-6 2l-8 17zM384 89h-1q35 0 36 90q1 82 -44 154q-52 83 -129 83q-49 0 -48 -53q0 -9 1 -34q1 -22 1 -35q0 -80 22 -121q27 -48 97 -72q35 -12 65 -12z" />
    <glyph glyph-name="q" unicode="q" horiz-adv-x="574" 
d="M273 544v1q113 -12 252 -81q-9 -122 -9 -284q0 -57 5 -342l-7 -7h-127l-8 6q7 142 7 183v72q-56 -39 -126 -105q-100 19 -164 95t-64 178q0 29 8 85q81 89 233 199zM386 209h1q0 81 -10 141q-3 22 -16 33q-7 6 -33 18q-49 23 -98 24q-57 0 -66.5 -10t-9.5 -68
q0 -90 47 -158q53 -76 139 -76q22 0 45 9q0 15 0.5 43.5t0.5 43.5z" />
    <glyph glyph-name="r" unicode="r" horiz-adv-x="383" 
d="M16 466q59 34 111 78q43 -9 60 -22q23 -18 23 -57l120 80l15 -5q56 -86 56 -103q0 -12 -46 -62q-57 -61 -59 -63h-6l-10 12v5q15 15 15 26q0 14 -25.5 50t-38.5 39q-26 -6 -26 -69q0 -10 1.5 -30t1.5 -30v-309l-5 -6q-32 3 -53 4q-21 0 -81 -4l-5 7q5 105 5 126v224
q0 46 -5 60q-10 25 -48 31v18z" />
    <glyph glyph-name="s" unicode="s" horiz-adv-x="468" 
d="M271 546q20 0 170 -73v-13l-83 -78q97 -60 110 -186q-35 -58 -111 -127q-87 -79 -139 -79q-32 0 -101 43q-58 36 -91 68v8q24 23 73 69q-38 33 -61.5 85t-24.5 103q46 51 121 109q93 71 137 71zM176 462h1q-19 0 -31 -23q-10 -19 -10 -39q0 -26 20 -65q22 -42 45 -42
q13 0 121 81q-35 27 -71 53q-50 35 -75 35zM317 91q44 0 44 41q0 40 -38 90q-40 52 -79 52q-15 0 -55 -33l-52 -46q34 -38 82 -68q57 -36 98 -36z" />
    <glyph glyph-name="t" unicode="t" horiz-adv-x="298" 
d="M197 644h13l-7 -141h119l6 -10q-36 -65 -54 -118h-23l2 37h-50v-216q0 -98 87 -98q5 0 25 5l5 -2l8 -13l-1 -4q-21 -20 -64 -50q-47 -33 -65 -48q-77 11 -109 64q-26 44 -26 127q0 21 2 62.5t2 62.5v110h-56l-3 9q112 107 189 223z" />
    <glyph glyph-name="u" unicode="u" 
d="M28 458l101 79q47 -15 60 -32.5t13 -65.5q0 -31 -1 -94t-1 -95q0 -81 17 -115q26 -49 99 -49q16 0 29 8q6 12 6 32v102q0 34 -1 126q0 43 -7 56q-10 19 -48 28l1 17q56 28 116 83q48 -19 62 -39.5t14 -72.5q0 -33 -2 -110q-3 -70 -2 -109q1 -103 23 -103q7 0 21 4l6 -1
l6 -17l-4 -6q-93 -42 -178 -102l-10 6l3 82q-37 -24 -73 -48q-54 -34 -71 -34q-31 0 -83 31q-41 24 -52 56q-6 19 -6 78q0 36 0.5 108t0.5 108q0 57 -39 72v17z" />
    <glyph glyph-name="v" unicode="v" horiz-adv-x="489" 
d="M12 466q67 37 113 75q56 -27 62 -38q7 -8 15 -69q69 49 130 106q62 -35 101 -114q36 -73 36 -148q0 -55 -16 -114q-94 -94 -197 -176q-34 9 -89 33q-61 28 -80 47q-6 7 -21 20v239q0 10 1 30t1 30q0 28 -14 42q-12 12 -42 21v16zM352 174q0 79 -25 146q-34 92 -98 92
q-14 0 -28 -14l-3 -111q0 -61 4 -111q3 -33 58 -53q23 -9 84 -21q8 64 8 72z" />
    <glyph glyph-name="w" unicode="w" horiz-adv-x="765" 
d="M14 459l-1 1q70 39 129 85q38 -11 50 -24.5t12 -44.5q0 -9 -1 -23q72 44 123 89q38 0 78 -17q50 -20 50 -51q0 -3 -0.5 -9t-0.5 -9v-3q66 45 120 94q9 -3 25 -12q25 -12 53 -39q78 -75 78 -206q0 -67 -27 -118q-4 -11 -7 -13l-195 -167q-61 26 -79 34q-44 21 -73.5 43.5
t-29.5 64.5q0 36 1 109t1 110q0 76 -81 76l-36 -9v-411l-5 -6q-72 0 -129 -4l-7 7l4 368q0 72 -52 69v16zM586 103q22 68 22 104q0 83 -31 144q-39 77 -113 77q-4 0 -12 -2q0 -13 -0.5 -39t-0.5 -39v-84q0 -69 7 -102q60 -42 128 -59z" />
    <glyph glyph-name="x" unicode="x" horiz-adv-x="404" 
d="M111 544q87 -25 120 -96q34 31 96 100q26 -11 52 -23q39 -19 41 -30l-2 -9l-71 -98q-70 38 -82 39q-13 0 -31 -23l-2 -94h80l5 -6v-49l-7 -6l-79 1q3 -69 15 -88q15 -24 76 -47q29 -11 52 -11q10 0 35 9l6 -1l10 -15l-1 -5q-79 -55 -134 -101q-39 3 -77 20q-43 18 -65 46
q-38 -70 -111 -159l-5 -2l-10 7v5q49 93 67 164q18 70 22 177h-78l-6 7v49l7 6h75q-2 70 -16 88q-15 20 -81 34l-3 15q16 16 51 47.5t51 48.5z" />
    <glyph glyph-name="y" unicode="y" horiz-adv-x="468" 
d="M102 545h-1q34 -6 50 -19.5t27 -45.5q1 -2 22 -76q42 -144 73 -214q99 155 99 172q0 16 -79 82q52 43 103 101l9 1q27 -24 84 -66v-9q-34 -45 -149 -235q-93 -154 -116 -195q-64 -120 -84 -209l-59 -22l-13 11l115 205q-40 119 -88 246q-13 37 -43 110q-9 20 -21 28
q-9 5 -34 11l-1 16q34 37 106 108z" />
    <glyph glyph-name="z" unicode="z" horiz-adv-x="383" 
d="M244 396h-98q-8 0 -22 1q-17 1 -23 1q-37 1 -50 -39l-4 -4h-13l-4 4q20 112 24 169l7 5q73 -4 166 -4q86 0 156 4l4 -11q-103 -140 -246 -394l63 -3h46q30 0 130 7l8 -11q-30 -51 -43 -75q-22 -42 -34 -78l-6 -4l-12 2l-3 5q3 18 3 17q0 7 -4 9q-7 4 -97 4q-53 0 -159 -2
l-3 7q55 77 114 191q50 99 100 199z" />
    <glyph glyph-name="braceleft" unicode="{" horiz-adv-x="334" 
d="M42 294q55 0 72 67q10 37 8 112l-1 43q-2 88 11 131q23 75 93 75h67v-65h-44q-46 0 -46 -82v-113q0 -22 -1 -57q-1 -43 -24 -84q-26 -46 -63 -56v-2q90 -27 88 -199l-1 -87q0 -108 47 -108h44v-65h-67q-48 0 -77 42q-25 37 -25 87v171q0 46 -18 83q-22 47 -63 47v60z" />
    <glyph glyph-name="bar" unicode="|" horiz-adv-x="260" 
d="M94 737h73v-756h-73v756z" />
    <glyph glyph-name="braceright" unicode="}" horiz-adv-x="334" 
d="M292 234q-41 0 -63 -47q-18 -37 -18 -83v-171q0 -50 -25 -87q-29 -42 -77 -42h-67v65h44q48 0 46 108q-1 62 -1 86q0 76 13 118q21 66 76 82l-1 2q-37 10 -63 56q-23 41 -24 83v171q0 82 -46 82h-44v65h67q104 0 104 -186q0 -12 -0.5 -33.5t-0.5 -29.5q0 -79 8 -112
q17 -67 72 -67v-60z" />
    <glyph glyph-name="asciitilde" unicode="~" horiz-adv-x="489" 
d="M146 370q34 0 96 -25t95 -25q25 0 50 18l44 34l68 -76q-48 -43 -70 -57q-43 -27 -84 -27q-34 0 -96 26.5t-95 26.5q-21 0 -48 -19q-20 -17 -41 -35l-67 77q84 82 148 82z" />
    <glyph glyph-name="quotesinglbase" unicode="&#x201a;" horiz-adv-x="192" 
d="M84 144l91 44l12 -7q-63 -164 -118 -277l-88 -49l-9 8q39 71 112 281z" />
    <glyph glyph-name="florin" unicode="&#x192;" 
d="M237 706q51 -15 106 -46l1 -8l-58 -89l-10 -2q-35 28 -66 41l-6 -104l128 5v32q0 22 1 30q3 23 70 75q3 2 92 65q55 -14 110 -47l1 -10l-56 -86l-12 -4q-42 31 -70 43l-4 -103l94 2l6 -7v-76l-6 -6l-97 1q-3 -85 -3 -172q0 -57 9 -228l-9 -10q-7 0 -21 0.5t-21 0.5
q-36 0 -86 -9l-11 9q10 136 12 409l-129 1q-3 -85 -3 -171q0 -77 8 -231l-9 -9q-21 1 -64 1q-7 0 -63 -8l-12 8q6 68 14 407h-51l-5 11q19 23 37 46q18 26 20 54q1 22 1 45q4 18 27 38z" />
    <glyph glyph-name="quotedblbase" unicode="&#x201e;" horiz-adv-x="404" 
d="M21 -96q23 17 39.5 46.5t16.5 57.5q0 37 -44 83q15 10 131 86q15 -36 15 -85q0 -66 -46 -119q-24 -27 -100 -84l-4 2l-8 9v4zM227 -95q23 16 40 45t17 56q0 37 -46 83q63 38 131 88q16 -57 16 -76q0 -71 -43 -124q-30 -40 -102 -87l-5 1l-8 9v5z" />
    <glyph glyph-name="ellipsis" unicode="&#x2026;" horiz-adv-x="1000" 
d="M219 0h-104v106h104v-106zM552 0h-104v106h104v-106zM885 0h-104v106h104v-106z" />
    <glyph glyph-name="dagger" unicode="&#x2020;" horiz-adv-x="728" 
d="M331 722h87v-316l228 292l29 -25l-257 -324v-442h-87v393l-282 354l59 53l223 -278v293z" />
    <glyph glyph-name="Scaron" unicode="&#x160;" horiz-adv-x="489" 
d="M143 890h75l79 -72l79 72h75l-122 -171h-64zM19 132l96 77l13 -2q43 -62 76 -87q46 -36 107 -36q11 0 19 24q6 19 6 34q0 82 -77 126q-35 20 -71 38.5t-71 38.5q-77 57 -77 165q0 41 16 82q25 17 54.5 35.5t63.5 37.5q88 49 121 49q30 0 92 -44q52 -36 81 -69l-3 -13
l-96 -71l-13 1q-29 43 -66 71q-47 36 -88 36q-14 0 -22 -23q-6 -18 -6 -35q0 -42 18.5 -75.5t56.5 -56.5q35 -20 70 -38t70 -37q75 -50 75 -139q0 -44 -18 -72q-9 -14 -51 -54q-88 -85 -111 -95q-20 -10 -51 -10q-111 0 -217 127z" />
    <glyph glyph-name="guilsinglleft" unicode="&#x2039;" horiz-adv-x="333" 
d="M245 108l-157 123v92l157 123v-88l-105 -81l105 -81v-88z" />
    <glyph glyph-name="OE" unicode="&#x152;" horiz-adv-x="1007" 
d="M515 106q66 0 91 40q20 34 20 102q0 151 -84 253q-90 110 -238 110q-75 0 -115 -49q-36 -44 -36 -122q0 -150 108 -244q102 -90 254 -90zM714 709q84 -3 170 -3q19 0 46.5 0.5t64.5 1.5l7 -9l-61 -95q-37 7 -76 10.5t-82 3.5h-19v-210h54q32 0 72 3t90 8l7 -10l-54 -88
q-5 0 -19 1t-38 3q-35 3 -58 3q-9 0 -27 -0.5t-27 -0.5l-1 -239q5 0 16 -0.5t16 -0.5q43 0 92.5 4.5t106.5 14.5l6 -10q-36 -58 -52 -96l-141 2q-38 1 -83.5 -1t-99.5 -5l-7 4q7 66 9 114q-9 -10 -18 -19l-18 -18q-89 -89 -146 -89q-172 0 -289 101q-125 107 -125 275
q0 28 3 53t8 48l10 15t15 20q51 62 113 111t136 88q1 1 16 7l16 8q5 1 16.5 1.5t28.5 0.5q123 0 217 -74q0 4 -0.5 7t-0.5 6q33 12 106 54z" />
    <glyph glyph-name="quoteleft" unicode="&#x2018;" horiz-adv-x="192" 
d="M173 704q-57 -57 -57 -102q0 -38 45 -85l-131 -86q-16 38 -16 85q0 61 48 117q26 30 97 85h6l8 -11v-3z" />
    <glyph glyph-name="quoteright" unicode="&#x2019;" horiz-adv-x="192" 
d="M14 445q57 57 57 102q0 38 -45 85l131 86q16 -38 16 -85q0 -61 -48 -117q-26 -30 -97 -85h-6l-8 11v3z" />
    <glyph glyph-name="quotedblleft" unicode="&#x201c;" horiz-adv-x="404" 
d="M330 601v1q0 -38 45 -87q-44 -29 -130 -86q-17 35 -17 72q-1 76 42 127q20 23 104 89l5 -2l9 -12q-3 -6 -15 -15q-43 -47 -43 -87zM180 702h-1q-56 -47 -55 -103q0 -36 45 -82q-45 -28 -131 -87q-17 40 -17 74q-1 73 42 126q26 33 104 88l5 -1l8 -11v-4z" />
    <glyph glyph-name="quotedblright" unicode="&#x201d;" horiz-adv-x="404" 
d="M78 546v-1q0 38 -45 87q44 29 130 86q17 -35 17 -72q1 -76 -42 -127q-20 -23 -104 -89l-5 2l-9 12q3 6 15 15q43 47 43 87zM228 445h1q56 47 55 103q0 35 -45 82q45 28 131 87q17 -40 17 -74q1 -73 -42 -126q-27 -33 -104 -88l-5 1l-8 11v4z" />
    <glyph glyph-name="bullet" unicode="&#x2022;" horiz-adv-x="333" 
d="M297 353q0 -55 -36.5 -92.5t-91.5 -37.5q-54 0 -93.5 38t-39.5 92t39.5 92t93.5 38q53 0 90.5 -38.5t37.5 -91.5z" />
    <glyph glyph-name="endash" unicode="&#x2013;" horiz-adv-x="489" 
d="M93 324q160 -10 290 -10q60 0 90 1l12 -16q-29 -36 -83 -112q-140 10 -211 10q-55 0 -165 -4l-8 13q25 39 75 118z" />
    <glyph glyph-name="emdash" unicode="&#x2014;" horiz-adv-x="489" 
d="M-2 345h499v-104h-499v104z" />
    <glyph glyph-name="tilde" unicode="&#x2dc;" horiz-adv-x="574" 
d="M198 712q24 0 69 -18t69 -18q17 0 36 13q8 6 15.5 12t15.5 12l50 -55q-36 -31 -51 -41q-31 -19 -61 -19q-12 0 -29.5 4.5t-39.5 14.5q-23 9 -40 14t-29 5q-17 0 -34 -14q-8 -5 -15 -11.5t-15 -13.5l-48 56q61 59 107 59z" />
    <glyph glyph-name="trademark" unicode="&#x2122;" horiz-adv-x="599" 
d="M283 664q-15 36 -29 43l1 8q11 0 20 -0.5t17 -0.5q5 -1 15.5 -0.5t27.5 1.5q13 -35 34 -84.5t52 -115.5q18 32 41 81.5t52 118.5h52l4 -6q-1 -5 -1 -21t1.5 -40.5t3.5 -57.5q5 -48 8.5 -93t8.5 -90l-3 -4h-8l-59 -1l-3 3v41q0 117 -9 174q-34 -67 -58.5 -121t-40.5 -96
h-10q-8 21 -19 46.5t-26 57.5q-21 45 -32.5 70.5t-14.5 32.5q-3 -20 -6 -39.5t-5 -39.5q-4 -23 -5 -42.5t-1 -36.5v-22.5t2 -22.5l-3 -3h-49l-3 3q13 46 27 125q2 17 5 33t6 33q3 19 4.5 35.5t3.5 30.5h-1zM20 715h-1q34 -3 85 -3q74 0 133 6l3 -3l-20 -48l-6 -3
q-22 11 -49 11q-4 0 -7.5 -0.5t-7.5 -0.5q-1 -27 -1 -47v-34v-90q0 -19 1.5 -43t3.5 -54l-4 -3q-13 1 -22 1h-15h-6.5t-8.5 -1h-14l-3 3q1 12 1.5 27t0.5 32v105q0 29 -1 55t-3 48q-50 -2 -72 -13l-5 2z" />
    <glyph glyph-name="scaron" unicode="&#x161;" horiz-adv-x="468" 
d="M104 775h75l79 -72l79 72h75l-122 -171h-64zM317 91q44 0 44 41q0 40 -38 90q-40 52 -79 52q-15 0 -55 -33q-13 -11 -26 -23t-26 -23q36 -39 82 -68q57 -36 98 -36zM177 462q-19 0 -31 -23q-10 -19 -10 -39q0 -25 20 -65q22 -42 45 -42q13 0 121 81q-36 29 -71 53
q-50 35 -75 35h1zM271 546q21 0 170 -73v-13l-83 -78q96 -59 110 -186q-34 -57 -111 -127q-85 -78 -139 -78q-34 0 -101 42q-29 18 -51.5 35t-39.5 33v8q12 11 30 28.5t43 40.5q-19 16 -35 38t-27 47t-17.5 51t-6.5 52q46 51 121 109q94 71 137 71z" />
    <glyph glyph-name="guilsinglright" unicode="&#x203a;" horiz-adv-x="333" 
d="M88 196l105 81l-105 81v88l157 -123v-92l-157 -123v88z" />
    <glyph glyph-name="oe" unicode="&#x153;" horiz-adv-x="761" 
d="M422 227q-12 146 -135 199q-41 18 -73 18q-56 0 -58 -119q-2 -99 60 -167q64 -72 162 -72q25 0 37 42q9 30 9 63q0 9 -0.5 18t-1.5 18zM652 548l124 -198l-4 -8l-221 -115v-3q0 -53 32 -88q33 -37 86 -37q11 0 33 7t30 7l11 -15l-1 -7q-19 -16 -37 -31.5t-36 -30.5
q-53 -43 -78 -43q-29 0 -88 35q-42 25 -60 60q-32 -20 -71.5 -43.5t-87.5 -48.5q-120 16 -186 88q-67 71 -67 193q0 77 27 121q1 4 9 15q12 7 23 17q37 25 83.5 54.5t103.5 64.5v1q66 -1 134 -43q13 -8 25 -16.5t23 -18.5q57 26 104.5 46t88.5 37zM649 326l-1 -1
q-5 24 -93 153q-2 -63 -3.5 -100t-1.5 -50v-67q14 8 27 15.5t27 15.5q40 22 45 34z" />
    <glyph glyph-name="Ydieresis" unicode="&#x178;" horiz-adv-x="638" 
d="M-3 658q67 20 159 57q94 -149 217 -278q114 140 190 279l70 -32l3 -11q-156 -202 -227 -309l3 -357l-8 -6h-145l-6 6q9 123 9 245q0 24 -2 72q-104 145 -264 324zM415 876l7 5h142l4 -9l-20 -68l-8 -6h-143l-4 7zM226 875l8 5h141l4 -6l-22 -69l-8 -7h-141l-4 7z" />
    <glyph glyph-name="exclamdown" unicode="&#xa1;" horiz-adv-x="276" 
d="M246 -18q-31 15 -90 35q-24 8 -38 14q-12 4 -12 33q0 48 4.5 144.5t4.5 144.5q0 64 -5 144l8 5q68 -43 103 -62q20 -13 25 -61l2 -70q10 -190 12 -318zM173 489q-75 72 -109 111q66 67 101 100l109 -100q-67 -75 -101 -111z" />
    <glyph glyph-name="cent" unicode="&#xa2;" horiz-adv-x="533" 
d="M66 708q75 -1 135 1q1 -5 2 -58v-122l-1 -354q0 -94 63 -91v-19q-25 -14 -120 -77q-31 14 -56 42q-27 32 -27 62zM335 708q35 -3 68 -3t66 3l3 -7q-2 -171 -2 -513q0 -108 65 -104v-18q-40 -25 -120 -80q-83 51 -83 111z" />
    <glyph glyph-name="currency" unicode="&#xa4;" horiz-adv-x="595" 
d="M227 706v-1q54 -16 109 -47l2 -10l-57 -86l-12 -4q-44 32 -69 43l-5 -103l152 1q59 65 111 145h17l-9 -142h124l5 -8q-39 -74 -55 -118h-24l3 36h-56v-153q0 -76 8 -104q17 -57 74 -57q20 0 38 6l4 -2l8 -13l-1 -5q-20 -19 -64.5 -50t-64.5 -49q-23 4 -52 20
q-46 26 -63 51q-19 28 -19 78q0 13 1 40t1 40q0 132 1 198h-141q-4 -116 -4 -173t9 -228l-9 -9q-7 0 -21 0.5t-21 0.5q-35 0 -87 -9l-9 9q6 76 11 408h-51l-3 12q10 11 27 34q28 41 29 98q0 24 16 39q20 19 147 112z" />
    <glyph glyph-name="yen" unicode="&#xa5;" horiz-adv-x="617" 
d="M196 644h13l-8 -143h173q41 45 115 143h13l-8 -141h119l7 -10q-32 -54 -54 -118h-24l3 36h-51v-189q0 -61 13 -87q19 -37 75 -37q5 0 25 5l4 -1l9 -13l-1 -5q-44 -32 -130 -98q-38 6 -70 29q-37 27 -49 50t-12 67q0 29 1 87t1 87v106h-159v-187q0 -56 11 -84
q17 -43 65 -43q16 0 36 5l6 -1l7 -12v-5q-44 -31 -131 -100q-34 7 -70 30q-38 25 -50 51q-11 23 -11 71q0 27 1 81t1 81v113h-57l-2 9q67 71 189 223z" />
    <glyph glyph-name="section" unicode="&#xa7;" horiz-adv-x="512" 
d="M396 106q33 -39 33 -82q0 -54 -44 -113q-17 -24 -83 -91l-227 80l58 103l207 -74q17 24 17 39q0 29 -45 62q-7 5 -112 70q-82 52 -111 81q-52 54 -52 124q0 76 78 148q-30 38 -30 84q0 88 128 201l226 -82l-63 -100l-205 74q-14 -25 -14 -39q0 -39 81 -86
q114 -67 152 -98q86 -71 86 -149q0 -74 -80 -152zM357 278q-26 22 -81 55q-49 31 -128 88q-36 -38 -36 -69q0 -36 55 -80q22 -17 85 -55.5t113 -77.5q37 35 37 65q0 34 -45 74z" />
    <glyph glyph-name="copyright" unicode="&#xa9;" horiz-adv-x="762" 
d="M372 605q25 0 47 -3.5t40 -9.5q34 -12 77 -44q-13 -12 -31.5 -32t-42.5 -47q-54 51 -152 51h-13q-12 -40 -17.5 -77.5t-5.5 -75.5q0 -94 49 -136q45 -41 142 -41q8 0 25.5 1t45.5 4l6 -10l-75 -86q-57 2 -99 7.5t-69 14.5q-66 21 -95 76q-30 57 -30 168q0 47 6 95
q27 24 68 60.5t95 84.5h29zM696 350q0 63 -24.5 120t-67 100.5t-100 69t-123.5 25.5q-63 0 -120 -24.5t-100.5 -67t-69 -100t-25.5 -123.5q0 -67 25.5 -124.5t69 -100t102.5 -66.5t127 -24q61 0 116.5 26t97.5 68.5t67 97.5t25 113v10zM731 340q0 -69 -28.5 -130.5t-76 -108
t-108.5 -74t-127 -27.5q-69 0 -134 24.5t-115 70t-80.5 110t-30.5 145.5q0 70 27.5 133.5t74.5 111.5t111 76.5t137 28.5q70 0 133.5 -27.5t111.5 -75.5t76.5 -111.5t28.5 -135.5v-10z" />
    <glyph glyph-name="guillemotleft" unicode="&#xab;" horiz-adv-x="426" 
d="M13 259q56 53 117 161h117q-52 -89 -114 -167q48 -60 104 -161l-127 1q-39 95 -97 153v13zM178 258h-1q82 102 117 161h117q-60 -96 -113 -168q60 -84 104 -160h-127q-11 37 -43 80q-51 68 -54 73v14z" />
    <glyph glyph-name="logicalnot.001" horiz-adv-x="705" 
d="M11 276h639v-276h-53v224h-586v52z" />
    <glyph glyph-name="minus" unicode="&#xad;" horiz-adv-x="489" 
d="M93 324q160 -10 290 -10q60 0 90 1l12 -16q-29 -36 -83 -112q-140 10 -211 10q-55 0 -165 -4l-8 13q25 39 75 118z" />
    <glyph glyph-name="registered" unicode="&#xae;" horiz-adv-x="762" 
d="M228 585q17 4 34.5 7t34.5 7q38 7 70 7q70 0 120 -29q60 -36 60 -103q0 -46 -32 -81q-11 -11 -28.5 -24t-43.5 -30q34 -66 148 -203l-4 -7q-27 -8 -52 -16t-48 -19q-55 93 -109 152q-7 7 -16 17.5t-22 24.5v11q46 30 67 58q26 37 26 82t-24 80q-27 38 -69 44
q-6 -83 -6 -124v-202q0 -39 1 -71.5t3 -58.5l-4 -4q-36 3 -67 3h-16t-21 -1l-3 3q4 68 6 114t2 70q0 175 -9 288zM696 350q0 63 -24.5 120t-67 100.5t-100 69t-123.5 25.5q-63 0 -120 -24.5t-100.5 -67t-69 -100t-25.5 -123.5q0 -67 25.5 -124.5t69 -100t102.5 -66.5
t127 -24q61 0 116.5 26t97.5 68.5t67 97.5t25 113v10zM731 340q0 -69 -28.5 -130.5t-76 -108t-108.5 -74t-127 -27.5q-69 0 -134 24.5t-115 70t-80.5 110t-30.5 145.5q0 70 27.5 133.5t74.5 111.5t111 76.5t137 28.5q70 0 133.5 -27.5t111.5 -75.5t76.5 -111.5t28.5 -135.5
v-10z" />
    <glyph glyph-name="degree" unicode="&#xb0;" horiz-adv-x="333" 
d="M310 612q0 -63 -43 -103h1q-42 -42 -104 -42q-31 0 -57.5 11t-45.5 30.5t-30 46t-11 57.5t11.5 58t31 46t46 30t56.5 11t56 -11.5t46 -31.5t31.5 -46t11.5 -56zM234 612q0 29 -20 49t-49 20t-49.5 -20t-20.5 -49q0 -30 20 -50t50 -20t49.5 20t19.5 50z" />
    <glyph glyph-name="plusminus" unicode="&#xb1;" horiz-adv-x="793" 
d="M710 327h-250v-160h-97v160h-252v96h252v159h97v-159h250v-96zM710 12h-599v96h599v-96z" />
    <glyph glyph-name="mu" unicode="&#xb5;" horiz-adv-x="502" 
d="M412 -22q-81 0 -97 85q-30 -29 -49.5 -46t-34 -25.5t-27.5 -11t-30 -2.5q-48 0 -80 31v-4q0 -19 4.5 -46.5t15.5 -68.5q8 -34 8 -53q0 -26 -18.5 -44t-44.5 -18q-62 0 -62 61q0 4 4.5 22.5t10 40t10.5 42.5t6 30q6 40 6 122v378h115v-283q0 -135 66 -135q21 0 45.5 19.5
t52.5 43.5v355h115v-343q0 -26 0.5 -42t3 -24.5t6 -11t9.5 -2.5q30 0 36 60h40q-6 -130 -111 -130z" />
    <glyph glyph-name="paragraph" unicode="&#xb6;" horiz-adv-x="572" 
d="M483 5v-204h-29v204h-13h-97q-26 0 -40.5 0.5t-29.5 3.5t-35 10t-56 20q-26 9 -41.5 22.5t-35.5 35.5q-20 23 -29 43t-20 49q-8 25 -12.5 43t-6.5 44q-2 44 1 77.5t23 68.5q23 37 31.5 51.5t12.5 19t8 5.5t17 11q12 10 17.5 16t13 10.5t23 8t47.5 9.5q25 4 34.5 5t17.5 1
t21 -1t43 -1h39h122h24v-28h-19h-31v-490h50v-34h-50zM454 529h-91v-490h91v490z" />
    <glyph glyph-name="periodcentered" unicode="&#xb7;" horiz-adv-x="170" 
d="M92 369q33 0 56 -21.5t23 -54.5q0 -34 -22.5 -57.5t-55.5 -23.5q-32 0 -54.5 23t-22.5 56q0 31 23 54.5t53 23.5z" />
    <glyph glyph-name="periodcentered" unicode="&#x2219;" horiz-adv-x="170" 
d="M92 369q33 0 56 -21.5t23 -54.5q0 -34 -22.5 -57.5t-55.5 -23.5q-32 0 -54.5 23t-22.5 56q0 31 23 54.5t53 23.5z" />
    <glyph glyph-name="guillemotright" unicode="&#xbb;" horiz-adv-x="426" 
d="M132 259l1 1q-51 71 -57 79q-37 54 -47 81h125q44 -100 98 -151l-1 -18q-79 -88 -115 -159l-116 1q45 80 112 166zM298 260q-59 77 -104 161l126 -1q37 -92 98 -152v-16q-63 -62 -119 -160h-115q51 89 114 168z" />
    <glyph glyph-name="onequarter" unicode="&#xbc;" horiz-adv-x="533" 
d="M334 474q1 29 1 56q-2 86 -2 72q0 22 15 38q2 3 32 28l45 39q68 -22 126 -49l3 -8l-29 -86l-11 -7l-45 17l-3 -349q0 -109 3 -219l-5 -7q-40 4 -60 4q-37 0 -66 -4l-8 8q5 140 5 168v222h-34l-5 12q28 42 38 65zM66 475v96q0 33 10 50q7 10 37 36q20 16 59 49
q62 -19 119 -42l4 -6l-27 -98l-12 -7l-54 21l-3 -348q0 -109 3 -219l-8 -7q-72 3 -71 3q-10 0 -27 -2q-21 -1 -27 -2l-7 9q0 15 2 69q2 43 2 69v251h-32l-6 13q28 42 38 65z" />
    <glyph glyph-name="onehalf" unicode="&#xbd;" horiz-adv-x="595" 
d="M240 706h-1q53 -16 148 -79l1 -5l-70 -81l-12 -2q-57 35 -108 50q0 -43 -0.5 -129t-0.5 -129v-81q0 -122 3 -243l-7 -7q-29 4 -66 4q-10 0 -60 -5l-7 9q1 12 2 53q2 32 2 52v276h-33l-6 11q18 25 39 67q0 2 2 57q-1 15 3 44q6 20 82 77q33 26 89 61zM460 643h16l-9 -140
h122l7 -11q-30 -54 -55 -117h-24l3 35h-55q0 -29 -0.5 -85.5t-0.5 -84.5q0 -143 74 -143q27 0 44 6l4 -1l9 -13l-1 -6q-21 -21 -64 -49q-50 -33 -67 -47q-67 14 -97 46q-33 34 -33 100q0 25 0.5 75t0.5 75v128h-56l-4 10q68 68 186 222z" />
    <glyph glyph-name="threequarters" unicode="&#xbe;" horiz-adv-x="533" 
d="M67 476l1 97q64 57 78 69q46 37 85 60q51 -14 100 -35l4 -9l-37 -98l-9 -4q-15 5 -44 17.5t-44 17.5l-1 -386q0 -66 2 -198l-7 -8q-42 4 -63 4q-35 0 -62 -4l-8 8q0 16 2 72q2 45 2 72v246h-32l-6 13q26 39 39 66zM363 659l7 4h136l3 -8l-30 -78l-8 -6h-135l-4 7z
M304 452l89 86q45 -23 62 -38q25 -25 25 -66q0 -36 -3.5 -106.5t-3.5 -105.5v-55q0 -31 15 -54q16 -26 45 -31v-19l-115 -75q-36 10 -58.5 41.5t-22.5 68.5q0 46 2 137t2 136q0 46 -37 62v19z" />
    <glyph glyph-name="questiondown" unicode="&#xbf;" horiz-adv-x="297" 
d="M20 86l9 11q16 -2 24 -2q51 0 84 26q36 28 36 76q0 40 -27 77l-48 56q-26 30 -26 54q0 51 64 132l110 -91q-24 -16 -45 -41q-25 -30 -25 -52q0 -19 34 -53q53 -53 64 -67q34 -44 34 -86q0 -74 -67 -105q-20 -10 -132 -34zM173 514q-76 66 -113 100q19 23 31 33
q61 60 70 70q94 -80 113 -106q-15 -19 -51 -49.5t-50 -47.5z" />
    <glyph glyph-name="Agrave" unicode="&#xc0;" horiz-adv-x="744" 
d="M275 646h-1q-38 0 -104 -4q-75 -5 -103 -6l-10 13l72 66q109 -7 177 -7l160 1q76 0 207 10l11 -11l-52 -64q-41 1 -124 4q89 -252 234 -634l-5 -6l-146 -16q-35 116 -121 344h-218l-134 -333l-110 -13l-8 9zM441 408l-75 199l-85 -198zM389 727h-42l-108 155h113z" />
    <glyph glyph-name="Aacute" unicode="&#xc1;" horiz-adv-x="744" 
d="M275 646h-1q-38 0 -104 -4q-75 -5 -103 -6l-10 13l72 66q109 -7 177 -7l160 1q76 0 207 10l11 -11l-52 -64q-41 1 -124 4q89 -252 234 -634l-5 -6l-146 -16q-35 116 -121 344h-218l-134 -333l-110 -13l-8 9zM441 408l-75 199l-85 -198zM538 882l-109 -155h-42l38 155h113
z" />
    <glyph glyph-name="Acircumflex" unicode="&#xc2;" horiz-adv-x="744" 
d="M275 646h-1q-38 0 -104 -4q-75 -5 -103 -6l-10 13l72 66q109 -7 177 -7l160 1q76 0 207 10l11 -11l-52 -64q-41 1 -124 4q89 -252 234 -634l-5 -6l-146 -16q-35 116 -121 344h-218l-134 -333l-110 -13l-8 9zM441 408l-75 199l-85 -198zM530 727h-75l-79 72l-79 -72h-75
l122 171h64z" />
    <glyph glyph-name="Atilde" unicode="&#xc3;" horiz-adv-x="744" 
d="M311 887q25 0 69 -18q45 -18 69 -18q19 0 36 13l16 12l16 12l49 -54q-35 -32 -51 -42q-31 -19 -60 -19q-26 0 -70 19q-46 19 -68 19q-17 0 -35 -14q-8 -5 -15 -11.5t-15 -13.5l-48 56q62 59 107 59zM441 408l-75 199l-85 -198zM275 646h-1q-19 0 -45 -1t-59 -3
q-38 -2 -63.5 -3.5t-39.5 -2.5l-10 13l72 66q55 -4 99 -5.5t78 -1.5l160 1q38 0 89.5 2.5t117.5 7.5l11 -11l-52 -64q-20 1 -51 1.5t-73 2.5q45 -127 103 -284.5t131 -349.5l-5 -6l-146 -15q-17 57 -47.5 142.5t-73.5 200.5h-218l-134 -333l-110 -12l-8 9z" />
    <glyph glyph-name="Adieresis" unicode="&#xc4;" horiz-adv-x="744" 
d="M214 876l6 4h142l4 -7l-23 -69l-7 -6h-141l-5 6zM403 876l6 4h142l4 -8l-21 -68l-7 -6h-143l-4 7zM275 646h-1q-38 0 -104 -4q-75 -5 -103 -6l-10 13l72 66q109 -7 177 -7l160 1q76 0 207 10l11 -11l-52 -64q-41 1 -124 4q89 -252 234 -634l-5 -6l-146 -16
q-35 116 -121 344h-218l-134 -333l-110 -13l-8 9zM441 408l-75 199l-85 -198z" />
    <glyph glyph-name="Aring" unicode="&#xc5;" horiz-adv-x="744" 
d="M275 646h-1q-38 0 -104 -4q-75 -5 -103 -6l-10 13l72 66q109 -7 177 -7l160 1q76 0 207 10l11 -11l-52 -64q-41 1 -124 4q89 -252 234 -634l-5 -6l-146 -16q-35 116 -121 344h-218l-134 -333l-110 -13l-8 9zM441 408l-75 199l-85 -198zM388 752q-39 0 -65.5 26.5
t-26.5 65.5q0 40 26 66.5t66 26.5q39 0 66 -27t27 -66t-27 -65.5t-66 -26.5zM388 888q-18 0 -30.5 -13t-12.5 -31q0 -19 12 -31t31 -12q18 0 31 12.5t13 30.5t-13 31t-31 13z" />
    <glyph glyph-name="AE" unicode="&#xc6;" horiz-adv-x="1093" 
d="M281 409l160 -1l-75 199zM796 714q84 -3 170 -3q19 0 46.5 0.5t64.5 1.5l7 -9l-61 -95q-37 7 -76 10.5t-82 3.5h-19v-210h54q32 0 72 3t90 8l7 -10l-54 -88q-5 0 -19 1t-38 3q-35 3 -58 3q-9 0 -27 -0.5t-27 -0.5l-1 -239q5 0 16 -0.5t16 -0.5q43 0 92.5 4.5t106.5 14.5
l6 -10q-37 -59 -52 -97l-141 3q-38 1 -83.5 -1t-99.5 -6l-6 4l-109 -11q-17 57 -47.5 142.5t-73.5 200.5h-218l-134 -333l-110 -12l-8 9l275 646h-1q-19 0 -45 -1t-59 -3q-38 -2 -63.5 -3.5t-39.5 -2.5l-10 13l72 66q55 -4 99 -5.5t78 -1.5l160 1q38 0 89.5 2.5t117.5 7.5
l11 -11l-52 -64q-20 1 -51 1.5t-73 2.5q39 -111 88.5 -246t110.5 -296q1 9 1 17.5v16.5v177q0 172 -18 343q33 12 106 54z" />
    <glyph glyph-name="Ccedilla" unicode="&#xc7;" 
d="M413 -66q0 -89 -129 -89q-38 0 -71 6l8 16q34 -3 41 -3q28 0 50 13.5t22 36.5q0 20 -18.5 33t-45.5 13q-3 0 -8.5 -0.5t-13.5 -1.5l35 38q5 2 10.5 3.5t10.5 3.5q-24 3 -44.5 8t-37.5 10q-96 32 -136 109q-43 80 -43 240q0 67 9 136q39 35 97 86.5t136 120.5h41
q70 0 125 -19q25 -9 52.5 -24t57.5 -38q-19 -18 -45 -46.5t-61 -66.5q-78 72 -217 72h-19q-33 -113 -33 -218q0 -134 70 -195q65 -58 203 -58q11 0 36.5 1.5t65.5 5.5l8 -14l-107 -122q-23 1 -43 1.5t-40 2.5q16 -10 25 -25.5t9 -35.5z" />
    <glyph glyph-name="Egrave" unicode="&#xc8;" horiz-adv-x="446" 
d="M156 709q84 -3 170 -3q37 0 111 2l7 -9l-61 -95q-73 14 -158 14h-19v-210h54q63 0 162 11l7 -10l-54 -88q-9 0 -57 4q-35 3 -58 3q-9 0 -27 -0.5t-27 -0.5l-1 -239q5 0 16 -0.5t16 -0.5q85 0 199 19l6 -10q-37 -60 -52 -97l-141 3q-76 0 -183 -7l-7 5q9 81 9 135v177
q0 172 -18 343q34 12 106 54zM299 726h-42l-108 155h113z" />
    <glyph glyph-name="Eacute" unicode="&#xc9;" horiz-adv-x="446" 
d="M156 709q84 -3 170 -3q37 0 111 2l7 -9l-61 -95q-73 14 -158 14h-19v-210h54q63 0 162 11l7 -10l-54 -88q-9 0 -57 4q-35 3 -58 3q-9 0 -27 -0.5t-27 -0.5l-1 -239q5 0 16 -0.5t16 -0.5q85 0 199 19l6 -10q-37 -60 -52 -97l-141 3q-76 0 -183 -7l-7 5q9 81 9 135v177
q0 172 -18 343q34 12 106 54zM422 882l-109 -155h-42l38 155h113z" />
    <glyph glyph-name="Ecircumflex" unicode="&#xca;" horiz-adv-x="446" 
d="M156 709q84 -3 170 -3q37 0 111 2l7 -9l-61 -95q-73 14 -158 14h-19v-210h54q63 0 162 11l7 -10l-54 -88q-9 0 -57 4q-35 3 -58 3q-9 0 -27 -0.5t-27 -0.5l-1 -239q5 0 16 -0.5t16 -0.5q85 0 199 19l6 -10q-37 -60 -52 -97l-141 3q-76 0 -183 -7l-7 5q9 81 9 135v177
q0 172 -18 343q34 12 106 54zM424 730h-75l-79 72l-79 -72h-75l122 171h64z" />
    <glyph glyph-name="Edieresis" unicode="&#xcb;" horiz-adv-x="446" 
d="M156 709q84 -3 170 -3q37 0 111 2l7 -9l-61 -95q-73 14 -158 14h-19v-210h54q63 0 162 11l7 -10l-54 -88q-9 0 -57 4q-35 3 -58 3q-9 0 -27 -0.5t-27 -0.5l-1 -239q5 0 16 -0.5t16 -0.5q85 0 199 19l6 -10q-37 -60 -52 -97l-141 3q-76 0 -183 -7l-7 5q9 81 9 135v177
q0 172 -18 343q34 12 106 54z" />
    <glyph glyph-name="Igrave" unicode="&#xcc;" horiz-adv-x="276" 
d="M70 518q0 117 -7 175l6 7l153 19l6 -8q-11 -152 -11 -249v-208q0 -27 8 -243l-6 -6l-151 -7l-7 6q9 96 9 161v353zM117 730h-42l-108 155h113z" />
    <glyph glyph-name="Iacute" unicode="&#xcd;" horiz-adv-x="276" 
d="M70 518q0 117 -7 175l6 7l153 19l6 -8q-11 -152 -11 -249v-208q0 -27 8 -243l-6 -6l-151 -7l-7 6q9 96 9 161v353zM273 882l-109 -155h-42l38 155h113z" />
    <glyph glyph-name="Icircumflex" unicode="&#xce;" horiz-adv-x="276" 
d="M70 518q0 117 -7 175l6 7l153 19l6 -8q-11 -152 -11 -249v-208q0 -27 8 -243l-6 -6l-151 -7l-7 6q9 96 9 161v353zM317 727h-75l-79 72l-79 -72h-75l122 171h64z" />
    <glyph glyph-name="Idieresis" unicode="&#xcf;" horiz-adv-x="276" 
d="M70 518q0 117 -7 175l6 7l153 19l6 -8q-11 -152 -11 -249v-208q0 -27 8 -243l-6 -6l-151 -7l-7 6q9 96 9 161v353z" />
    <glyph glyph-name="Eth" unicode="&#xd0;" horiz-adv-x="680" 
d="M209 245v-47q0 -8 1.5 -34t3.5 -71q58 -19 107 -19q92 0 142 65q47 61 47 154q0 122 -88 204q-78 71 -203 101q-1 -9 -2 -43.5t-4 -94.5q-2 -31 -2.5 -57t-1.5 -49q23 3 38.5 5.5t25.5 4.5q26 5 49 10.5t43 11.5l14 -12q-20 -38 -33 -66.5t-20 -48.5q-26 -2 -55 -5.5
t-62 -8.5zM46 331h-1l22 3v119l-6 174q33 17 55 28t33 17q25 13 46 26t38 25q161 -9 279 -92q136 -94 136 -247q0 -149 -117 -252q-81 -71 -252 -138l-218 6l6 153v63q-13 -2 -27 -5.5l-30 -7.5l-10 11q8 20 19.5 49t26.5 68z" />
    <glyph glyph-name="Ntilde" unicode="&#xd1;" horiz-adv-x="766" 
d="M311 887q25 0 69 -18q45 -18 69 -18q19 0 36 13l16 12l16 12l49 -54q-35 -32 -51 -42q-31 -19 -60 -19q-26 0 -70 19q-46 19 -68 19q-17 0 -35 -14q-8 -5 -15 -11.5t-15 -13.5l-48 56q62 59 107 59zM65 683l96 27l7 -2q64 -101 198 -270q38 -49 61 -78t31 -39
q52 -64 97 -112q-1 63 -1 124t-1 124q-1 72 -3.5 133t-6.5 113l5 6q55 -1 90 -1.5t51 0.5l5 -7q-3 -93 -4.5 -187t-0.5 -191q1 -105 1.5 -184t2.5 -134l-4 -4l-106 -12l-8 5q-86 181 -368 493q-1 -69 -1.5 -120.5t-0.5 -86.5v-92q0 -58 2.5 -104t7.5 -80l-6 -5l-142 -9l-6 7
l6 323v236l-6 120z" />
    <glyph glyph-name="Ograve" unicode="&#xd2;" horiz-adv-x="787" 
d="M392 716q152 0 257 -110q104 -109 104 -262q0 -49 -6 -67q-3 -9 -40 -61q-56 -79 -117 -139q-89 -90 -146 -90q-170 0 -289 102q-125 107 -125 275q0 55 11 101q8 12 25 35q102 121 249 199q1 1 16 7.5t16 7.5q10 2 45 2zM515 106q65 0 91 40q20 33 20 102q0 150 -84 253
q-91 110 -238 110q-75 0 -115 -49q-36 -44 -36 -122q0 -150 108 -244q102 -90 254 -90zM313 727h-42l-108 155h113z" />
    <glyph glyph-name="Oacute" unicode="&#xd3;" horiz-adv-x="787" 
d="M392 716q152 0 257 -110q104 -109 104 -262q0 -49 -6 -67q-3 -9 -40 -61q-56 -79 -117 -139q-89 -90 -146 -90q-170 0 -289 102q-125 107 -125 275q0 55 11 101q8 12 25 35q102 121 249 199q1 1 16 7.5t16 7.5q10 2 45 2zM515 106q65 0 91 40q20 33 20 102q0 150 -84 253
q-91 110 -238 110q-75 0 -115 -49q-36 -44 -36 -122q0 -150 108 -244q102 -90 254 -90zM631 882l-109 -155h-42l38 155h113z" />
    <glyph glyph-name="Ocircumflex" unicode="&#xd4;" horiz-adv-x="787" 
d="M392 716q152 0 257 -110q104 -109 104 -262q0 -49 -6 -67q-3 -9 -40 -61q-56 -79 -117 -139q-89 -90 -146 -90q-170 0 -289 102q-125 107 -125 275q0 55 11 101q8 12 25 35q102 121 249 199q1 1 16 7.5t16 7.5q10 2 45 2zM515 106q65 0 91 40q20 33 20 102q0 150 -84 253
q-91 110 -238 110q-75 0 -115 -49q-36 -44 -36 -122q0 -150 108 -244q102 -90 254 -90zM558 725h-75l-79 72l-79 -72h-75l122 171h64z" />
    <glyph glyph-name="Otilde" unicode="&#xd5;" horiz-adv-x="787" 
d="M311 887q25 0 69 -18q45 -18 69 -18q19 0 36 13l16 12l16 12l49 -54q-35 -32 -51 -42q-31 -19 -60 -19q-26 0 -70 19q-46 19 -68 19q-17 0 -35 -14q-8 -5 -15 -11.5t-15 -13.5l-48 56q62 59 107 59zM515 106q66 0 91 40q20 34 20 102q0 151 -84 253q-90 110 -238 110
q-75 0 -115 -49q-36 -44 -36 -122q0 -150 108 -244q102 -90 254 -90zM392 716q152 0 257 -110q104 -110 104 -262q0 -49 -6 -67q-3 -9 -40 -61q-28 -40 -57 -74t-60 -65q-89 -89 -146 -89q-172 0 -289 101q-125 107 -125 275q0 28 3 53t8 48l10 15t15 20q51 62 113 111
t136 88q1 1 16 7l16 8q5 1 16.5 1.5t28.5 0.5z" />
    <glyph glyph-name="Odieresis" unicode="&#xd6;" horiz-adv-x="787" 
d="M415 876l7 5h142l4 -9l-20 -68l-8 -6h-143l-4 7zM226 875l8 5h141l4 -6l-22 -69l-8 -7h-141l-4 7zM391 716q155 0 259 -112q103 -109 103 -265q0 -40 -5 -63q-3 -7 -36 -54q-60 -84 -121 -145q-92 -91 -156 -91q-94 0 -194 50q-104 52 -155 128q-36 54 -47 111
q-8 39 -8 120q0 60 24 92q36 48 119 115q77 62 137 95q28 15 37 17q12 2 43 2zM508 105q70 0 96 39q22 32 22 105q0 253 -212 339q-57 23 -110 23q-75 0 -115 -51q-36 -47 -36 -125q0 -142 108 -237q104 -93 247 -93z" />
    <glyph glyph-name="multiply" unicode="&#xd7;" horiz-adv-x="489" 
d="M173 292l-131 131l74 74l132 -131l131 131l74 -74l-131 -131l131 -132l-74 -75l-131 133l-132 -133l-74 75z" />
    <glyph glyph-name="Oslash" unicode="&#xd8;" horiz-adv-x="787" 
d="M314 157q87 -51 201 -51q66 0 91 40q20 34 20 102q0 151 -84 253q-3 4 -6 7t-5 6q-59 -88 -112.5 -176.5t-104.5 -180.5zM458 573q-68 38 -154 38q-75 0 -115 -49q-36 -44 -36 -122q0 -132 86 -223q53 82 87 135.5t50 79.5q23 37 43 71.5t39 69.5zM535 718l113 -5l9 -18
q-11 -14 -21 -28.5t-21 -29.5q9 -7 17.5 -15t16.5 -16q104 -110 104 -262q0 -49 -6 -67q-3 -9 -40 -61q-28 -40 -57 -74t-60 -65q-89 -89 -146 -89q-112 0 -198 41q-5 -10 -10.5 -20t-10.5 -20l-112 8l-4 18q9 15 21 32.5t26 40.5l-1 1q-125 107 -125 275q0 28 3 53t8 48
l10 15t15 20q51 62 113 111t136 88q1 1 16 7l16 8q5 1 16.5 1.5t28.5 0.5q69 0 130 -23q4 6 7 12.5t6 12.5z" />
    <glyph glyph-name="Ugrave" unicode="&#xd9;" horiz-adv-x="638" 
d="M59 698l148 10l7 -6q5 -31 5 -75q0 -58 -5 -172.5t-5 -171.5q0 -176 193 -176q11 0 21 3q5 170 5 204q0 183 -14 377l4 7l147 14l7 -4q-6 -170 -7 -433q0 -65 2 -270l-5 -4q-80 -5 -144 -13l-4 6l6 71q-69 -34 -129 -79q-73 10 -147 61q-86 58 -86 125q0 44 4.5 133.5
t4.5 134.5q0 120 -11 252zM334 724h-42l-108 155h113z" />
    <glyph glyph-name="Uacute" unicode="&#xda;" horiz-adv-x="638" 
d="M59 698l148 10l7 -6q5 -31 5 -75q0 -58 -5 -172.5t-5 -171.5q0 -176 193 -176q11 0 21 3q5 170 5 204q0 183 -14 377l4 7l147 14l7 -4q-6 -170 -7 -433q0 -65 2 -270l-5 -4q-80 -5 -144 -13l-4 6l6 71q-69 -34 -129 -79q-73 10 -147 61q-86 58 -86 125q0 44 4.5 133.5
t4.5 134.5q0 120 -11 252zM459 880l-109 -155h-42l38 155h113z" />
    <glyph glyph-name="Ucircumflex" unicode="&#xdb;" horiz-adv-x="638" 
d="M59 698l148 10l7 -6q5 -31 5 -75q0 -58 -5 -172.5t-5 -171.5q0 -176 193 -176q11 0 21 3q5 170 5 204q0 183 -14 377l4 7l147 14l7 -4q-6 -170 -7 -433q0 -65 2 -270l-5 -4q-80 -5 -144 -13l-4 6l6 71q-69 -34 -129 -79q-73 10 -147 61q-86 58 -86 125q0 44 4.5 133.5
t4.5 134.5q0 120 -11 252zM474 727h-75l-79 72l-79 -72h-75l122 171h64z" />
    <glyph glyph-name="Udieresis" unicode="&#xdc;" horiz-adv-x="638" 
d="M163 876l7 5h141l4 -6l-22 -70l-9 -7h-141l-4 7zM352 876l6 5h141l5 -6l-21 -71l-8 -6h-141l-6 7zM59 698l148 10l7 -6q5 -31 5 -75q0 -58 -5 -172.5t-5 -171.5q0 -176 193 -176q11 0 21 3q5 170 5 204q0 183 -14 377l4 7l147 14l7 -4q-6 -170 -7 -433q0 -65 2 -270
l-5 -4q-80 -5 -144 -13l-4 6l6 71q-69 -34 -129 -79q-73 10 -147 61q-86 58 -86 125q0 44 4.5 133.5t4.5 134.5q0 120 -11 252z" />
    <glyph glyph-name="Yacute" unicode="&#xdd;" horiz-adv-x="638" 
d="M-3 658q67 20 159 57q94 -149 217 -278q114 140 190 279l70 -32l3 -11q-156 -202 -227 -309l3 -357l-8 -6h-145l-6 6q9 123 9 245q0 24 -2 72q-104 145 -264 324zM480 882l-109 -155h-42l38 155h113z" />
    <glyph glyph-name="germandbls" unicode="&#xdf;" 
d="M331 711v1l150 -114v-11l-101 -104q70 -66 101 -118q42 -69 43 -148q0 -13 -12 -69q-60 -69 -84 -93q-67 -68 -92 -68q-33 -1 -93 73v13l74 85l11 -1q26 -36 36 -47q22 -23 50 -31q3 25 3 51q0 83 -45 150q-43 64 -120 101l-2 10q43 37 123 119q-77 88 -132 102
q-9 1 -27 6l-13 -6l-3 -135v-320q0 -25 5 -150l-6 -8q-20 1 -59 3q-26 0 -66 -3l-7 8q4 91 4 205q0 49 -1 147t-1 147q0 46 21 67q6 6 62 38q59 36 181 100z" />
    <glyph glyph-name="agrave" unicode="&#xe0;" horiz-adv-x="447" 
d="M5 121h1q18 21 86 86q54 52 81 89q-13 -3 -27 -3q-39 0 -66 19q-32 21 -32 58q0 44 57.5 109t99.5 65q65 0 114 -24q64 -31 64 -88v-22q0 -98 1 -213q1 -84 50 -106v-13l-100 -89q-74 27 -78 109q-66 -46 -133 -107h-11q-40 49 -107 120v10zM152 315q33 0 64 14
q39 17 39 44q0 31 -44 48q-33 13 -71 13q-28 0 -47 -14q-21 -15 -21 -42q0 -63 80 -63zM259 336q-68 -62 -143 -137q2 -8 40 -48q47 -47 49 -50l14 -7q14 4 27.5 19.5t13.5 30.5v26zM278 621h-42l-108 155h113z" />
    <glyph glyph-name="aacute" unicode="&#xe1;" horiz-adv-x="447" 
d="M5 121h1q18 21 86 86q54 52 81 89q-13 -3 -27 -3q-39 0 -66 19q-32 21 -32 58q0 44 57.5 109t99.5 65q65 0 114 -24q64 -31 64 -88v-22q0 -98 1 -213q1 -84 50 -106v-13l-100 -89q-74 27 -78 109q-66 -46 -133 -107h-11q-40 49 -107 120v10zM152 315q33 0 64 14
q39 17 39 44q0 31 -44 48q-33 13 -71 13q-28 0 -47 -14q-21 -15 -21 -42q0 -63 80 -63zM259 336q-68 -62 -143 -137q2 -8 40 -48q47 -47 49 -50l14 -7q14 4 27.5 19.5t13.5 30.5v26zM393 776l-109 -155h-42l38 155h113z" />
    <glyph glyph-name="acircumflex" unicode="&#xe2;" horiz-adv-x="447" 
d="M5 121h1q18 21 86 86q54 52 81 89q-13 -3 -27 -3q-39 0 -66 19q-32 21 -32 58q0 44 57.5 109t99.5 65q65 0 114 -24q64 -31 64 -88v-22q0 -98 1 -213q1 -84 50 -106v-13l-100 -89q-74 27 -78 109q-66 -46 -133 -107h-11q-40 49 -107 120v10zM152 315q33 0 64 14
q39 17 39 44q0 31 -44 48q-33 13 -71 13q-28 0 -47 -14q-21 -15 -21 -42q0 -63 80 -63zM259 336q-68 -62 -143 -137q2 -8 40 -48q47 -47 49 -50l14 -7q14 4 27.5 19.5t13.5 30.5v26zM384 608h-75l-79 72l-79 -72h-75l122 171h64z" />
    <glyph glyph-name="atilde" unicode="&#xe3;" horiz-adv-x="447" 
d="M139 711q24 0 69 -18t69 -18q17 0 36 13q8 6 15.5 12t15.5 12l50 -55q-36 -31 -51 -41q-31 -19 -61 -19q-12 0 -29.5 4.5t-39.5 14.5q-23 9 -40 14t-29 5q-17 0 -34 -14q-8 -5 -15 -11.5t-15 -13.5l-48 56q61 59 107 59zM259 336q-68 -62 -143 -137q2 -10 40 -48
q23 -24 35.5 -36t13.5 -14q2 -1 5.5 -3t8.5 -4q14 4 27.5 19.5t13.5 30.5v26zM152 315q31 0 64 14q39 16 39 44q0 31 -44 48q-32 13 -71 13q-27 0 -47 -14q-21 -15 -21 -42q0 -63 80 -63zM5 121h1q18 21 86 86q27 26 47 48t34 41q-14 -3 -27 -3q-40 0 -66 19q-32 21 -32 58
q0 44 57 109q59 65 100 65q64 0 114 -24q64 -31 64 -88v-22v-102t1 -111q1 -84 50 -106v-13l-100 -88q-74 25 -78 108q-66 -47 -133 -106h-11q-20 24 -46.5 54t-60.5 65v10z" />
    <glyph glyph-name="adieresis" unicode="&#xe4;" horiz-adv-x="447" 
d="M241 694l7 4h142l4 -8l-22 -69l-6 -6h-143l-4 7zM52 692l7 6h142l3 -8l-22 -68l-8 -7h-140l-4 7zM5 121h1q18 21 86 86q54 52 81 89q-13 -3 -27 -3q-39 0 -66 19q-32 21 -32 58q0 44 57.5 109t99.5 65q65 0 114 -24q64 -31 64 -88v-22q0 -98 1 -213q1 -84 50 -106v-13
l-100 -89q-74 27 -78 109q-66 -46 -133 -107h-11q-40 49 -107 120v10zM152 315q33 0 64 14q39 17 39 44q0 31 -44 48q-33 13 -71 13q-28 0 -47 -14q-21 -15 -21 -42q0 -63 80 -63zM259 336q-68 -62 -143 -137q2 -8 40 -48q47 -47 49 -50l14 -7q14 4 27.5 19.5t13.5 30.5v26z
" />
    <glyph glyph-name="aring" unicode="&#xe5;" horiz-adv-x="447" 
d="M230 734q-18 0 -30.5 -13t-12.5 -31q0 -19 12 -31t31 -12q18 0 31 12.5t13 30.5t-13 31t-31 13zM230 598q-39 0 -65.5 26.5t-26.5 65.5q0 40 26 66.5t66 26.5q39 0 66 -27t27 -66t-27 -65.5t-66 -26.5zM259 336q-68 -62 -143 -137q2 -10 40 -48q23 -24 35.5 -36t13.5 -14
q2 -1 5.5 -3t8.5 -4q14 4 27.5 19.5t13.5 30.5v26zM152 315q31 0 64 14q39 16 39 44q0 31 -44 48q-32 13 -71 13q-27 0 -47 -14q-21 -15 -21 -42q0 -63 80 -63zM5 121h1q18 21 86 86q27 26 47 48t34 41q-14 -3 -27 -3q-40 0 -66 19q-32 21 -32 58q0 44 57 109q59 65 100 65
q64 0 114 -24q64 -31 64 -88v-22v-102t1 -111q1 -84 50 -106v-13l-100 -88q-74 25 -78 108q-66 -47 -133 -106h-11q-20 24 -46.5 54t-60.5 65v10z" />
    <glyph glyph-name="ae" unicode="&#xe6;" horiz-adv-x="594" 
d="M152 315q31 0 64 14q39 16 39 44q0 31 -44 48q-32 13 -71 13q-27 0 -47 -14q-21 -15 -21 -42q0 -63 80 -63zM259 336q-68 -62 -143 -137q2 -10 40 -48q23 -24 35.5 -36t13.5 -14q2 -1 5.5 -3t8.5 -4q14 4 27.5 19.5t13.5 30.5v26l-1 96v50v20zM490 548l124 -198l-4 -8
l-221 -115v-3q0 -53 32 -88q33 -37 86 -37q11 0 33 7t30 7l11 -15l-1 -7q-19 -16 -37 -31.5t-36 -30.5q-53 -43 -78 -43q-23 0 -71 25l-24 -21q-74 25 -78 108q-66 -47 -133 -106h-11q-20 24 -46.5 54t-60.5 65v10h1q18 21 86 86q27 26 47 48t34 41q-14 -3 -27 -3
q-40 0 -66 19q-32 21 -32 58q0 44 57 109q59 65 100 65q64 0 114 -24q26 -13 40 -27q37 16 69.5 30t61.5 25zM487 326l-1 -1q-5 24 -93 153q-2 -63 -3.5 -100t-1.5 -50v-67q14 8 27 15.5t27 15.5q40 22 45 34z" />
    <glyph glyph-name="ccedilla" unicode="&#xe7;" horiz-adv-x="383" 
d="M300 -67q0 -89 -129 -89q-38 0 -71 6l8 16q34 -3 41 -3q28 0 50 13.5t22 36.5q0 20 -18.5 33t-45.5 13q-3 0 -8.5 -0.5t-13.5 -1.5l35 38q30 11 49 11h1q-83 30 -127 81q-60 70 -60 190q0 42 12 95q22 25 76 67t142 103q43 -20 132 -45q13 4 26 17h6l9 -10l2 -4
q-38 -45 -71 -83.5t-59 -73.5h-5l-11 8l-1 7l13 18q2 6 2 7q0 16 -60 36q-50 16 -78 17q-12 -50 -12 -90q-1 -140 121 -214q40 -24 67 -24q7 0 27 7l5 -1l7 -8v-6l-114 -107q14 -10 22.5 -25t8.5 -35z" />
    <glyph glyph-name="egrave" unicode="&#xe8;" horiz-adv-x="383" 
d="M280 548l124 -198l-4 -8l-221 -115v-3q0 -53 32 -88q33 -37 86 -37q9 0 33 7t30 7l11 -15l-1 -7q-37 -31 -73 -62q-54 -44 -78 -44q-30 0 -88 36q-67 41 -74 107q-8 71 -8 188q0 22 0.5 66t0.5 66q136 63 230 100zM277 326l-1 -1q-5 24 -93 153q-5 -125 -5 -150v-67
q27 15 54 31q40 23 45 34zM254 621h-42l-108 155h113z" />
    <glyph glyph-name="eacute" unicode="&#xe9;" horiz-adv-x="383" 
d="M280 548l124 -198l-4 -8l-221 -115v-3q0 -53 32 -88q33 -37 86 -37q9 0 33 7t30 7l11 -15l-1 -7q-37 -31 -73 -62q-54 -44 -78 -44q-30 0 -88 36q-67 41 -74 107q-8 71 -8 188q0 22 0.5 66t0.5 66q136 63 230 100zM277 326l-1 -1q-5 24 -93 153q-5 -125 -5 -150v-67
q27 15 54 31q40 23 45 34zM343 776l-109 -155h-42l38 155h113z" />
    <glyph glyph-name="ecircumflex" unicode="&#xea;" horiz-adv-x="383" 
d="M280 548l124 -198l-4 -8l-221 -115v-3q0 -53 32 -88q33 -37 86 -37q9 0 33 7t30 7l11 -15l-1 -7q-37 -31 -73 -62q-54 -44 -78 -44q-30 0 -88 36q-67 41 -74 107q-8 71 -8 188q0 22 0.5 66t0.5 66q136 63 230 100zM277 326l-1 -1q-5 24 -93 153q-5 -125 -5 -150v-67
q27 15 54 31q40 23 45 34zM370 608h-75l-79 72l-79 -72h-75l122 171h64z" />
    <glyph glyph-name="edieresis" unicode="&#xeb;" horiz-adv-x="383" 
d="M280 548l124 -198l-4 -8l-221 -115v-3q0 -53 32 -88q33 -37 86 -37q9 0 33 7t30 7l11 -15l-1 -7q-37 -31 -73 -62q-54 -44 -78 -44q-30 0 -88 36q-67 41 -74 107q-8 71 -8 188q0 22 0.5 66t0.5 66q136 63 230 100zM277 326l-1 -1q-5 24 -93 153q-5 -125 -5 -150v-67
q27 15 54 31q40 23 45 34zM225 698l5 4h142l3 -7l-20 -70l-7 -5h-143l-4 8zM36 698l5 4h142l3 -7l-22 -69l-8 -7h-141l-3 6z" />
    <glyph glyph-name="igrave" unicode="&#xec;" horiz-adv-x="254" 
d="M33 452q30 32 94 94q44 -19 61 -39q21 -25 21 -70q0 -44 -3.5 -132t-3.5 -132q0 -73 60 -91v-18l-114 -76q-57 22 -74 66q-11 28 -11 101q0 37 2.5 111.5t2.5 112.5q0 35 -35 56v17zM114 621h-42l-108 155h113z" />
    <glyph glyph-name="iacute" unicode="&#xed;" horiz-adv-x="254" 
d="M33 452q30 32 94 94q44 -19 61 -39q21 -25 21 -70q0 -44 -3.5 -132t-3.5 -132q0 -73 60 -91v-18l-114 -76q-57 22 -74 66q-11 28 -11 101q0 37 2.5 111.5t2.5 112.5q0 35 -35 56v17zM263 776l-109 -155h-42l38 155h113z" />
    <glyph glyph-name="icircumflex" unicode="&#xee;" horiz-adv-x="254" 
d="M33 452q30 32 94 94q44 -19 61 -39q21 -25 21 -70q0 -44 -3.5 -132t-3.5 -132q0 -73 60 -91v-18l-114 -76q-57 22 -74 66q-11 28 -11 101q0 37 2.5 111.5t2.5 112.5q0 35 -35 56v17zM287 605h-75l-79 72l-79 -72h-75l122 171h64z" />
    <glyph glyph-name="idieresis" unicode="&#xef;" horiz-adv-x="254" 
d="M33 452q30 32 94 94q44 -19 61 -39q21 -25 21 -70q0 -44 -3.5 -132t-3.5 -132q0 -73 60 -91v-18l-114 -76q-57 22 -74 66q-11 28 -11 101q0 37 2.5 111.5t2.5 112.5q0 35 -35 56v17zM195 691l5 4h142l3 -7l-20 -70l-7 -5h-143l-4 8zM6 691l5 4h142l3 -7l-22 -69l-8 -7
h-141l-3 6z" />
    <glyph glyph-name="eth" unicode="&#xf0;" 
d="M396 241h-1q0 109 -44 171q-41 57 -146 101q-37 -86 -37 -164q0 -100 52 -161q41 -47 140 -99q36 60 36 152zM9 620l20 11l-14 14t-11 12l2 9l132 83q7 -8 16 -16.5t20 -18.5l2 1q19 11 34.5 22t29.5 22l15 -4q-1 -31 -0.5 -53.5t2.5 -38.5l-12 -6q20 -15 41 -28.5
t41 -24.5q102 -56 137 -97q59 -71 59 -197q0 -59 -16 -116q-88 -103 -227 -204q-1 0 -3.5 -0.5t-3.5 -0.5q-8 0 -57 23q-179 90 -179 284q0 51 25 157l123 69q-20 11 -41.5 24t-42.5 27l-30 -20t-42 -29l-12 4q-1 15 -3 38t-5 54z" />
    <glyph glyph-name="ntilde" unicode="&#xf1;" 
d="M198 712q24 0 69 -18t69 -18q17 0 36 13q8 6 15.5 12t15.5 12l50 -55q-36 -31 -51 -41q-31 -19 -61 -19q-12 0 -29.5 4.5t-39.5 14.5q-23 9 -40 14t-29 5q-17 0 -34 -14q-8 -5 -15 -11.5t-15 -13.5l-48 56q61 59 107 59zM101 548q57 -14 74 -31q18 -20 23 -77
q72 49 138 108q95 -14 124 -47q30 -35 30 -129q0 -17 -0.5 -41.5t-1.5 -57.5t-1 -57.5v-41.5q0 -60 31 -60q7 0 27 7l6 -2l6 -14l-3 -4q-46 -24 -91.5 -51.5t-91.5 -57.5l-12 8q6 177 6 266q0 162 -82 162q-39 0 -86 -32q0 -8 -0.5 -21t-0.5 -30v-51v-109q0 -51 2.5 -94.5
t7.5 -78.5l-8 -7q-7 0 -20.5 0.5t-20.5 0.5q-36 0 -87 -6l-9 6q6 69 6 139q0 22 -1.5 62t-3.5 100q-2 50 -9 71q-13 42 -49 43l-4 19q35 35 60 62t41 46z" />
    <glyph glyph-name="ograve" unicode="&#xf2;" horiz-adv-x="574" 
d="M277 542v1q68 -2 134 -43q64 -39 102 -99q30 -47 30 -145q0 -55 -30 -126q-76 -58 -229 -142q-121 18 -186 89q-67 72 -67 193q0 77 27 121q2 5 9 15q12 8 23 17q73 50 187 119zM378 86q25 0 37 42q9 30 9 63q0 176 -137 235q-41 18 -73 18q-57 0 -58 -119
q-1 -99 60 -167q64 -72 162 -72zM307 621h-42l-108 155h113z" />
    <glyph glyph-name="oacute" unicode="&#xf3;" horiz-adv-x="574" 
d="M277 542v1q68 -2 134 -43q64 -39 102 -99q30 -47 30 -145q0 -55 -30 -126q-76 -58 -229 -142q-121 18 -186 89q-67 72 -67 193q0 77 27 121q2 5 9 15q12 8 23 17q73 50 187 119zM378 86q25 0 37 42q9 30 9 63q0 176 -137 235q-41 18 -73 18q-57 0 -58 -119
q-1 -99 60 -167q64 -72 162 -72zM444 779l-109 -155h-42l38 155h113z" />
    <glyph glyph-name="ocircumflex" unicode="&#xf4;" horiz-adv-x="574" 
d="M277 542v1q68 -2 134 -43q64 -39 102 -99q30 -47 30 -145q0 -55 -30 -126q-76 -58 -229 -142q-121 18 -186 89q-67 72 -67 193q0 77 27 121q2 5 9 15q12 8 23 17q73 50 187 119zM378 86q25 0 37 42q9 30 9 63q0 176 -137 235q-41 18 -73 18q-57 0 -58 -119
q-1 -99 60 -167q64 -72 162 -72zM439 605h-75l-79 72l-79 -72h-75l122 171h64z" />
    <glyph glyph-name="otilde" unicode="&#xf5;" horiz-adv-x="574" 
d="M212 711q13 0 30 -4t39 -14q45 -18 69 -18q16 0 36 13q8 6 16 12.5t16 12.5l49 -55q-36 -33 -51 -41q-32 -20 -60 -20q-23 0 -70 19q-45 20 -68 20q-17 0 -35 -14q-8 -6 -15 -12.5t-15 -12.5l-48 55q59 59 107 59zM378 86q25 0 37 42q9 30 9 63q0 176 -137 235
q-41 18 -73 18q-56 0 -58 -119q-2 -99 60 -167q64 -72 162 -72zM277 543q66 -1 134 -43q64 -39 102 -99q30 -47 30 -145q0 -56 -30 -126q-78 -59 -229 -141q-120 16 -186 88q-67 71 -67 193q0 77 27 121q1 4 9 15q12 7 23 17q37 25 83.5 54.5t103.5 64.5v1z" />
    <glyph glyph-name="odieresis" unicode="&#xf6;" horiz-adv-x="574" 
d="M294 697l5 4h142l3 -7l-20 -70l-7 -5h-143l-4 8zM105 697l5 4h142l3 -7l-22 -69l-8 -7h-141l-3 6zM276 542q72 -4 137 -42q67 -40 101 -102q29 -53 29 -136q0 -63 -30 -132q-107 -76 -228 -142q-254 44 -254 285q0 99 35 132q2 2 61 41q49 33 149 96zM376 85h1
q47 0 47 118q0 95 -57 165q-61 75 -154 75q-56 0 -56 -125q0 -94 62 -163q64 -70 157 -70z" />
    <glyph glyph-name="divide" unicode="&#xf7;" horiz-adv-x="542" 
d="M265 318q-26 0 -44.5 19t-18.5 45t18.5 45t44.5 19t45 -19t19 -45t-19 -45t-45 -19zM8 215v72h525v-72h-525zM265 56q-26 0 -44.5 19t-18.5 45t18.5 45t44.5 19t45 -19t19 -45t-19 -45t-45 -19z" />
    <glyph glyph-name="oslash" unicode="&#xf8;" horiz-adv-x="574" 
d="M240 134q58 -48 138 -48q25 0 37 42q9 30 9 63q0 92 -37 151q-39 -51 -75.5 -103t-71.5 -105zM331 402q-11 7 -21.5 13t-22.5 11q-41 18 -73 18q-56 0 -58 -119q-2 -69 29 -124q33 44 55 73.5t33 44.5q16 21 30 42t28 41zM409 529l113 4l10 -12q-15 -17 -30 -34.5
t-29 -35.5q11 -11 21 -23.5t19 -26.5q30 -47 30 -145q0 -56 -30 -126q-78 -59 -229 -141q-63 9 -113 33q-7 -13 -16 -27l-112 -2l-6 12q11 14 25 33t32 43q-63 72 -63 189q0 77 27 121q1 4 9 15q12 7 23 17q37 25 83.5 54.5t103.5 64.5v1q59 -1 120 -35z" />
    <glyph glyph-name="ugrave" unicode="&#xf9;" 
d="M28 458l101 79q47 -15 60 -32.5t13 -65.5q0 -31 -1 -94t-1 -95q0 -81 17 -115q26 -49 99 -49q16 0 29 8q6 12 6 32v102q0 34 -1 126q0 43 -7 56q-10 19 -48 28l1 17q56 28 116 83q48 -19 62 -39.5t14 -72.5q0 -33 -2 -110q-3 -70 -2 -109q1 -103 23 -103q7 0 21 4l6 -1
l6 -17l-4 -6q-93 -42 -178 -102l-10 6l3 82q-37 -24 -73 -48q-54 -34 -71 -34q-31 0 -83 31q-41 24 -52 56q-6 19 -6 78q0 36 0.5 108t0.5 108q0 57 -39 72v17zM307 621h-42l-108 155h113z" />
    <glyph glyph-name="uacute" unicode="&#xfa;" 
d="M28 458l101 79q47 -15 60 -32.5t13 -65.5q0 -31 -1 -94t-1 -95q0 -81 17 -115q26 -49 99 -49q16 0 29 8q6 12 6 32v102q0 34 -1 126q0 43 -7 56q-10 19 -48 28l1 17q56 28 116 83q48 -19 62 -39.5t14 -72.5q0 -33 -2 -110q-3 -70 -2 -109q1 -103 23 -103q7 0 21 4l6 -1
l6 -17l-4 -6q-93 -42 -178 -102l-10 6l3 82q-37 -24 -73 -48q-54 -34 -71 -34q-31 0 -83 31q-41 24 -52 56q-6 19 -6 78q0 36 0.5 108t0.5 108q0 57 -39 72v17zM393 776l-109 -155h-42l38 155h113z" />
    <glyph glyph-name="ucircumflex" unicode="&#xfb;" 
d="M28 458l101 79q47 -15 60 -32.5t13 -65.5q0 -31 -1 -94t-1 -95q0 -81 17 -115q26 -49 99 -49q16 0 29 8q6 12 6 32v102q0 34 -1 126q0 43 -7 56q-10 19 -48 28l1 17q56 28 116 83q48 -19 62 -39.5t14 -72.5q0 -33 -2 -110q-3 -70 -2 -109q1 -103 23 -103q7 0 21 4l6 -1
l6 -17l-4 -6q-93 -42 -178 -102l-10 6l3 82q-37 -24 -73 -48q-54 -34 -71 -34q-31 0 -83 31q-41 24 -52 56q-6 19 -6 78q0 36 0.5 108t0.5 108q0 57 -39 72v17zM439 605h-75l-79 72l-79 -72h-75l122 171h64z" />
    <glyph glyph-name="udieresis" unicode="&#xfc;" 
d="M312 698l6 5h142l4 -9l-21 -69l-7 -5h-142l-5 7zM122 697l7 5h142l3 -7l-22 -68l-7 -7h-141l-4 6zM28 458l101 79q47 -15 60 -32.5t13 -65.5q0 -31 -1 -94t-1 -95q0 -81 17 -115q26 -49 99 -49q16 0 29 8q6 12 6 32v102q0 34 -1 126q0 43 -7 56q-10 19 -48 28l1 17
q56 28 116 83q48 -19 62 -39.5t14 -72.5q0 -33 -2 -110q-3 -70 -2 -109q1 -103 23 -103q7 0 21 4l6 -1l6 -17l-4 -6q-93 -42 -178 -102l-10 6l3 82q-37 -24 -73 -48q-54 -34 -71 -34q-31 0 -83 31q-41 24 -52 56q-6 19 -6 78q0 36 0.5 108t0.5 108q0 57 -39 72v17z" />
    <glyph glyph-name="yacute" unicode="&#xfd;" horiz-adv-x="468" 
d="M102 545h-1q34 -6 50 -19.5t27 -45.5q1 -2 22 -76q42 -144 73 -214q99 155 99 172q0 16 -79 82q52 43 103 101l9 1q27 -24 84 -66v-9q-34 -45 -149 -235q-93 -154 -116 -195q-64 -120 -84 -209l-59 -22l-13 11l115 205q-40 119 -88 246q-13 37 -43 110q-9 20 -21 28
q-9 5 -34 11l-1 16q34 37 106 108zM393 776l-109 -155h-42l38 155h113z" />
    <glyph glyph-name="ydieresis" unicode="&#xff;" horiz-adv-x="468" 
d="M102 545h-1q34 -6 50 -19.5t27 -45.5q1 -2 22 -76q42 -144 73 -214q99 155 99 172q0 16 -79 82q52 43 103 101l9 1q27 -24 84 -66v-9q-34 -45 -149 -235q-93 -154 -116 -195q-64 -120 -84 -209l-59 -22l-13 11l115 205q-40 119 -88 246q-13 37 -43 110q-9 20 -21 28
q-9 5 -34 11l-1 16q34 37 106 108zM294 697l5 4h142l3 -7l-20 -70l-7 -5h-143l-4 8zM105 697l5 4h142l3 -7l-22 -69l-8 -7h-141l-3 6z" />
    <glyph glyph-name="Euro" unicode="&#x20ac;" horiz-adv-x="694" 
d="M11 351h70q1 10 1 19t1 18h-72v49h77q7 48 19 85.5t32 70.5t50 62.5t72 60.5q49 36 58 36q12 0 44.5 -3.5t71 -7.5t74 -7.5t53.5 -3.5q22 0 40.5 6t40.5 6l7 -12q0 -20 -29 -67q-14 -23 -24 -37.5t-18 -23t-15 -11.5t-14 -3q-3 0 -10 1t-16.5 2.5t-20.5 2.5t-20 1
q-7 0 -14.5 -0.5t-15.5 -1.5l-165 -17q-20 -16 -32 -27t-18 -24.5t-7.5 -33.5t-1.5 -54h233v-49h-232q1 -10 1.5 -19t2.5 -18h228v-49h-218q46 -163 193 -163q27 0 54 7t51 16t44 17t34 11l16 -16q-20 -59 -36.5 -93.5t-40.5 -53.5t-61.5 -24.5t-99.5 -5.5q-72 0 -129.5 21
t-98 60.5t-63 96t-25.5 127.5h-71v49z" />
    <glyph glyph-name="breve" horiz-adv-x="334" 
d="M280 615q-42 -65 -113 -65q-65 0 -105 51.5t-48 147.5h34q30 -98 118 -98q93 0 119 98h36q-7 -82 -41 -134z" />
    <glyph glyph-name="dotaccent" horiz-adv-x="334" 
d="M221 669l-53 -54l-54 54l54 54z" />
    <glyph glyph-name="ring" horiz-adv-x="541" 
d="M302 598q-39 0 -65.5 26.5t-26.5 65.5q0 40 26 66.5t66 26.5q39 0 66 -27t27 -66t-27 -65.5t-66 -26.5zM302 734q-18 0 -30.5 -13t-12.5 -31q0 -19 12 -31t31 -12q18 0 31 12.5t13 30.5t-13 31t-31 13z" />
    <glyph glyph-name="dst" horiz-adv-x="1469" 
d="M1439 -39h-1409v842h1409v-842zM1414 564q0 29 -18.5 50.5t-46.5 21.5h-149q-37 0 -37 35v132h-57v-132q0 -88 116 -88q7 0 20 0.5t27.5 1.5t27.5 1.5t20 0.5q42 0 42 -19q0 -21 -41 -21q-7 0 -20.5 1t-28 1.5t-28 1.5t-20.5 1q-115 0 -115 -96v-324q0 -70 72 -86v56
q-19 12 -19 43v302q0 46 35 46h147q29 0 51 21t22 50zM1025 137v94q0 42 -26.5 65t-69.5 23h-246q-42 0 -42 37v96q0 43 42 43h244q23 0 43 -21h51q-13 76 -90 76h-247q-45 0 -71.5 -29t-26.5 -74v-89q0 -42 25 -67t67 -25h251q46 0 46 -45v-76q0 -46 -62 -46h-251
q-22 0 -22 22q0 18 20 18h271v53h-280q-30 0 -47.5 -21t-17.5 -52t19.5 -51t50.5 -20h283q40 0 63 24.5t23 64.5zM517 803h-56l2 -684q0 -7 -6 -14t-13 -7q-19 0 -19 21v151q0 44 -31 75l-179 178q-19 19 -52 19t-58 -18t-25 -50v-331q0 -97 89 -97h82q64 0 77 73h-53
q-12 -15 -25 -21h-81q-36 0 -36 43v311q0 37 26 37q14 0 27 -13l95 -94q52 -53 87 -93q1 -20 1.5 -62t0.5 -107q0 -33 19.5 -55.5t52.5 -22.5q31 0 52.5 22t21.5 53z" />
    <glyph glyph-name="hungarumlaut" unicode="&#xa;" horiz-adv-x="398" 
d="M287 537l1 -1l-37 -37q13 25 23 42t19.5 27t18 14t18.5 4q22 0 38 -14t16 -35q0 -24 -103 -142h-85l2 3l-3 -3h-82l64 146q19 45 56 45q18 0 36 -13t18 -31v-5z" />
    <glyph glyph-name="ogonek" horiz-adv-x="334" 
d="M155 -190q-45 0 -75.5 25t-30.5 68q0 51 65 113h42q-39 -44 -39 -64q0 -17 8.5 -31.5t22 -25.5t29.5 -17.5t31 -6.5q29 0 64 24l16 -26q-71 -59 -133 -59z" />
    <glyph glyph-name="caron" horiz-adv-x="456" 
d="M104 775h75l79 -72l79 72h75l-122 -171h-64z" />
    <glyph glyph-name="dollar" unicode="$" horiz-adv-x="512" 
d="M495 302q0 -154 -191 -288v-47h-84v53l-218 61l71 117l147 -41v175l-105 -54q-33 32 -53.5 57t-32 48t-16 46t-4.5 51q0 44 13 83t39.5 70t66 51.5t92.5 28.5v43h84v-46q63 -12 146 -48l-50 -114l-96 27v-140l114 59q77 -85 77 -192zM220 390v209l-84 24q-22 -41 -22 -81
q0 -89 97 -156zM392 242q0 43 -20 82t-56 58l-12 -6v-241l47 -14q41 56 41 121z" />
    <glyph glyph-name="quotesingle" unicode="'" horiz-adv-x="211" 
d="M163 629q0 -110 -47 -254h-24q-50 136 -50 227v5.5t1 8.5v85h120v-72z" />
    <glyph glyph-name="circumflex" unicode="&#x2c6;" horiz-adv-x="541" 
d="M439 605h-75l-79 72l-79 -72h-75l122 171h64z" />
    <glyph glyph-name="grave" unicode="`" horiz-adv-x="541" 
d="M307 621h-42l-108 155h113z" />
    <glyph glyph-name="perthousand" unicode="&#x2030;" horiz-adv-x="1050" 
d="M1007 212q0 -21 -5.5 -45.5t-15.5 -47.5t-23.5 -44t-29.5 -35l-22 -24q-12 -13 -30 -13q-136 0 -136 160q0 132 119 221q75 0 109 -40t34 -132zM698 211q0 -21 -5.5 -45.5t-15.5 -47.5t-23.5 -44t-29.5 -35l-22 -24q-12 -13 -30 -13q-136 0 -136 160q0 132 119 221
q75 0 109 -40t34 -132zM301 517q0 -21 -5.5 -45.5t-15.5 -47.5t-23.5 -44t-29.5 -35l-22 -24q-12 -13 -30 -13q-136 0 -136 160q0 132 119 221q75 0 109 -40t34 -132zM930 166q0 101 -53 128h-42q-8 -11 -8 -83q0 -124 73 -124q9 0 15 1.5t9.5 9t4.5 23.5t1 45zM621 165
q0 101 -53 128h-42q-8 -11 -8 -83q0 -124 73 -124q9 0 15 1.5t9.5 9t4.5 23.5t1 45zM224 471q0 101 -53 128h-42q-8 -11 -8 -83q0 -124 73 -124q9 0 15 1.5t9.5 9t4.5 23.5t1 45zM171 -39h-76l452 724h76z" />
    <glyph glyph-name="ordfeminine" unicode="&#xaa;" horiz-adv-x="281" 
d="M271 546q0 -3 -4.5 -12.5t-10.5 -20t-11.5 -20t-7.5 -11.5q-12 -5 -28 -5q-14 0 -21 3t-11.5 8t-9 13t-11.5 18q-5 -2 -14 -12q-26 -32 -51 -32q-75 0 -75 105q0 20 1.5 44t5.5 52q4 4 15.5 13t28 20.5t35.5 23.5l38 24q6 0 17.5 -2.5t24 -6t24 -6.5t17.5 -4q12 0 23 -4
l3 -11q-20 -31 -20 -84v-48q0 -11 -0.5 -18t2 -11t10 -5.5t23.5 -1.5q7 -6 7 -9zM159 672q0 4 -15 9l-28 5q-2 1 -3.5 1t-3.5 1q-14 0 -17 -20v-69q0 -56 35 -56l-1 -4v2q0 2 2 2h8q4 5 9.5 11.5t13.5 14.5v103z" />
    <glyph glyph-name="dieresis" unicode="&#xa8;" horiz-adv-x="524" 
d="M397 758v-13t-3 -11t-10 -21t-22 -41q-14 -26 -21 -38.5t-11.5 -17t-10 -3.5t-16.5 1q-21 0 -26 8q0 2 6 22t14 43.5t15.5 44t9.5 24.5q8 14 40 14h13q22 0 22 -12zM278 758q0 -9 -1.5 -14t-7.5 -15.5t-17.5 -31.5t-31.5 -62q-15 -21 -36 -21q-22 0 -26 4v25q0 3 18 53
l22 59q7 19 18 19h51q11 0 11 -16z" />
    <glyph glyph-name="brokenbar" unicode="&#xa6;" horiz-adv-x="358" 
d="M147 306v411h86v-411h-86zM147 -177v410h86v-410h-86z" />
    <glyph glyph-name="sterling" unicode="&#xa3;" horiz-adv-x="543" 
d="M424 135q6 8 16.5 20.5t25.5 29.5l41 -27l5 -24q-24 -34 -52.5 -68t-60.5 -69l-37 -3v-1q-25 0 -63 13t-76 29.5t-69.5 30.5t-43.5 17q-8 -8 -18.5 -22t-24.5 -33l-55 31q13 31 55 104v-1q21 34 43 55q8 -3 19.5 -6t25.5 -7q42 24 42 59q0 19 -17 45h-142v76h87
q-60 78 -60 145q0 42 17 76.5t47 58.5t71.5 37.5t89.5 13.5q42 0 79.5 -11.5t66 -31.5t45 -48t16.5 -61q0 -67 -64 -67q-20 0 -32.5 4t-20 15.5t-10 32.5t-2.5 55q0 41 -86 41q-45 0 -74.5 -19.5t-29.5 -53.5q0 -33 109 -187h176v-76h-150q-2 -73 -84 -137q129 -61 158 -61
q12 0 37 25z" />
    <glyph glyph-name="macron" unicode="&#xaf;" horiz-adv-x="402" 
d="M350 229h-250v47h250v-47z" />
    <glyph glyph-name="twosuperior" unicode="&#xb2;" horiz-adv-x="281" 
d="M258 476l-8.5 -14t-19 -30t-19 -30t-9.5 -14l-11 -1q-6 0 -18 1t-25 2.5t-25 2.5t-18 1h-29q-5 -1 -12 -2q-6 -1 -15 -2t-21 -3l-11 6l-2 11q0 7 34 51q94 124 94 183q0 36 -32 36q-2 0 -17.5 -3t-44.5 -10l-13 6l-2 13q0 6 5.5 18t13 24.5t16 22.5t14.5 12l22 -6
q36 0 60 -4t37.5 -14t19 -25.5t5.5 -38.5q0 -55 -80 -153q-24 -28 -27 -38q20 -2 35.5 -3t28.5 -1h27l14 11q7 6 20 8l11 -5z" />
    <glyph glyph-name="threesuperior" unicode="&#xb3;" horiz-adv-x="265" 
d="M236 508q0 -19 -12 -41t-30.5 -41t-40.5 -31.5t-41 -12.5h-38q-8 0 -18.5 3t-20 8.5t-16 13t-6.5 16.5q0 4 36 76l14 7l9 -1l5 -7q0 -41 55 -41q24 0 37 8l2 7q-1 13 -2.5 22t-6.5 16.5t-14.5 15.5t-25.5 19h-42q-5 10 -5 13q0 5 4 14l48 24q31 15 31 37q0 40 -57 40
q-9 0 -27 -5.5t-27 -5.5q-16 0 -16 16q0 6 5 18.5t12.5 25t15 22.5t13.5 13l20 -6q39 0 63.5 -3t39 -10t19.5 -20t5 -32q0 -16 -2 -25.5t-5.5 -17t-9.5 -16.5t-14 -23l27 -22q8 -8 11.5 -16.5t4.5 -16.5v-41z" />
    <glyph glyph-name="acute" unicode="&#xb4;" horiz-adv-x="541" 
d="M393 776l-109 -155h-42l38 155h113z" />
    <glyph glyph-name="cedilla" unicode="&#xb8;" horiz-adv-x="413" 
d="M300 -68q0 -89 -129 -89q-38 0 -71 6l8 16q34 -3 41 -3q28 0 50 13.5t22 36.5q0 20 -18.5 33t-45.5 13q-3 0 -8.5 -0.5t-13.5 -1.5l35 38q28 12 49 12q34 0 57.5 -20.5t23.5 -53.5z" />
    <glyph glyph-name="Thorn" unicode="&#xde;" horiz-adv-x="595" 
d="M240 706h-1q53 -16 148 -79l1 -5l-70 -81l-12 -2q-57 35 -108 50q0 -43 -0.5 -129t-0.5 -129v-81q0 -122 3 -243l-7 -7q-29 4 -66 4q-10 0 -60 -5l-7 9q1 12 2 53q2 32 2 52v276h-33l-6 11q18 25 39 67q0 2 2 57q-1 15 3 44q6 20 82 77q33 26 89 61zM460 643h16l-9 -140
h122l7 -11q-30 -54 -55 -117h-24l3 35h-55q0 -29 -0.5 -85.5t-0.5 -84.5q0 -143 74 -143q27 0 44 6l4 -1l9 -13l-1 -6q-21 -21 -64 -49q-50 -33 -67 -47q-67 14 -97 46q-33 34 -33 100q0 25 0.5 75t0.5 75v128h-56l-4 10q68 68 186 222z" />
    <glyph glyph-name="onesuperior" unicode="&#xb9;" horiz-adv-x="209" 
d="M169 412q-5 -4 -10.5 -5.5t-14 -4t-20.5 -6t-31 -11.5q-10 -5 -18 -6.5t-13 -1.5l-9 3l-5 9q7 16 18 48q4 30 5.5 82.5t1.5 128.5q0 15 -2 21l-2 1q-8 -6 -31 -14l-10 5q-13 14 -13 33l1 6l17.5 7.5t39.5 17.5t41.5 19t23.5 12l8 1l13 -6l2 -14q0 -6 -1 -15.5t-1.5 -20
t-1.5 -19.5t-1 -15q0 -48 -1 -103t-1 -119l1 -5q15 -14 15 -19z" />
    <glyph glyph-name="ordmasculine" unicode="&#xba;" horiz-adv-x="259" 
d="M241 653q0 -64 -16 -84q-1 -1 -15 -15.5t-31 -31t-31 -30.5l-14 -14h-19q-40 0 -67 24.5t-27 64.5v78q0 14 1.5 22t7.5 15.5t17 16.5t30 25q40 33 44 33h14q106 0 106 -104zM166 615q0 46 -12 60.5t-43 14.5h-12q-1 0 -6 -5v-5q0 -12 -3 -30v-54q0 -26 26 -40h6
q5 -1 11.5 -2t15.5 -3q11 0 14 9t3 39v16z" />
    <glyph glyph-name="thorn" unicode="&#xfe;" horiz-adv-x="533" 
d="M197 644h13l-8 -141h294l3 -10q-63 -79 -98 -136q43 -35 71 -84q32 -55 32 -105q0 -144 -207 -304l-5 1l-9 10v6q99 76 100 190q1 99 -109 178l-1 11q90 93 126 152h-197v-215q0 -99 87 -99q5 0 25 5l6 -1l8 -13l-1 -5q-44 -33 -130 -99q-88 34 -108 58q-25 30 -25 116
q0 39 1 111q2 76 2 111v30h-57l-3 10q72 69 190 223z" />
    <glyph glyph-name="numbersign.001" horiz-adv-x="549" 
d="M419 475l-26 -181h92v-82h-102l-28 -209h-85l29 209h-109l-29 -209h-84l29 209h-96v82h106l26 180h-106v84h117l29 210h84l-29 -210h109l29 210h84l-30 -210h84v-83h-94zM227 475l-26 -181h107l26 181h-107z" />
    <glyph glyph-name="daggerdbl" unicode="&#x2021;" horiz-adv-x="728" 
d="M388 -87h-87v315l-229 -291l-28 24l257 324v453h87v-406l281 -352l-58 -52l-223 277v-292z" />
    <glyph glyph-name="logicalnot" unicode="&#xac;" horiz-adv-x="1193" 
d="M1118 58q-1 -1 -6 -2t-12 -3l-18 -4l-40 -10q-11 -4 -26 -8t-32 -9l-54 -19l-5 4l9 27l9 32q5 20 8.5 39.5t8.5 39.5q8 40 11 73t4 58q0 21 -1.5 37.5t-3.5 30.5q-6 36 -20 61t-32.5 37.5t-40.5 14t-44 -8.5q-4 -2 -7.5 -3.5t-8.5 -4.5l-15 -9l-11 -13l-2 -135
q0 -42 0.5 -74t0.5 -59l3 -70l2 -68l-5 -4l-33 3q-10 1 -18 1h-16l-29 -1l-27 -4l-4 6l2 108l1 109l1 117v133l-91 -119h-4l-8 7v3l3 5l4 7l4 5q3 4 3 11l-2 6l-3 4q-2 3 -12 7l-12 7q-4 2 -7 4t-8 4q-23 9 -41.5 14t-33.5 7l-12 1h-14l-5 -17l-2 -16q-3 -14 -5 -29.5
t-2 -32.5q3 -119 84 -190q8 -8 18 -15t21 -12q27 -16 42.5 -21.5t24.5 -5.5q3 0 9 1t17 4q2 0 3.5 0.5t3.5 0.5h1l4 -5v-3l-31 -27l-28 -28l-27 -27l-25 -25l-22 5l-21 6q-17 5 -30.5 10.5t-27.5 15.5q-62 37 -94 93t-34 138q-1 20 0 37.5t5 41.5l6 33l29 25l28 25
q11 8 20.5 16.5t20.5 16.5l57 43l59 41l29 -8l34 -12l33 -12l38 -15l1 54l-1 47l-1 58l-2 57l1 1l42 -1h43l23 1h24q-1 0 0 -1h1l-5 -67l-3 -68l-1 -71l2 -78l42 28l32 26l40 32l38 32q4 -2 12 -3q77 -29 111 -82t35 -147q0 -23 -2.5 -56t-9.5 -81l-9 -57q-3 -18 -3 -29
l1 -9q2 -12 12 -17l7 -2q2 0 3 -0.5t3 -0.5q3 0 6 1h7zM294 581l-5 -2l-20 7l-21 10l-23 10l-29 9v-494l1 -102l-5 -5l-34 3q-11 0 -20 0.5t-17 -0.5l-26 -1l-23 -3l-5 6l4 143v254h-33l-4 8l8 13l10 17l10 17l10 21v95l36 31l33 30l32 26l24 19l18 12l17 11l18 -6l21 -7
l29 -9l27 -13l2 -5z" />
    <glyph glyph-name="numbersign" unicode="#" horiz-adv-x="254" 
d="M66 564v-1q0 38 8.5 54.5t37.5 41.5q20 15 59 47q64 -14 119 -40l6 -8l-27 -97l-12 -8l-55 22v-569l-6 -6q-31 3 -62 3q-35 0 -63 -4l-8 8q0 22 2 97q2 61 2 98v195h-33l-5 13q33 40 37 65v89z" />
    <glyph glyph-name="dotlessi" unicode="&#xd;" horiz-adv-x="254" 
d="M33 452q30 32 94 94q44 -19 61 -39q21 -25 21 -70q0 -44 -3.5 -132t-3.5 -132q0 -73 60 -91v-18l-114 -76q-57 22 -74 66q-11 28 -11 101q0 37 2.5 111.5t2.5 112.5q0 35 -35 56v17z" />
    <glyph glyph-name="asciicircum" unicode="^" horiz-adv-x="738" 
d="M695 391h-92l-235 186l-234 -186h-93l279 286h98z" />
    <glyph glyph-name="fraction" horiz-adv-x="278" 
d="M50 -19h-67l246 756h66z" />
  </font>
</defs>
</svg>
